<svg width="38" height="25" viewBox="0 0 38 25" fill="none" xmlns="http://www.w3.org/2000/svg">
<path opacity="0.8" d="M38 25H0V22.06H2V12.274C2 12.0088 2.10536 11.7544 2.29289 11.5669C2.48043 11.3794 2.73478 11.274 3 11.274H13V1C13 0.734784 13.1054 0.48043 13.2929 0.292893C13.4804 0.105357 13.7348 0 14 0L24 0C24.2652 0 24.5196 0.105357 24.7071 0.292893C24.8946 0.48043 25 0.734784 25 1V11.274H35C35.2652 11.274 35.5196 11.3794 35.7071 11.5669C35.8946 11.7544 36 12.0088 36 12.274V22.059H38V25ZM28.219 18.382C28.2137 18.6031 28.2636 18.822 28.364 19.019C28.4579 19.1936 28.5886 19.3458 28.747 19.465C28.9099 19.5854 29.0936 19.6746 29.289 19.728C29.4915 19.7845 29.7008 19.8131 29.911 19.813C30.148 19.8139 30.3838 19.7802 30.611 19.713C30.8135 19.6543 31.0032 19.5579 31.17 19.429C31.3265 19.3057 31.4533 19.1489 31.541 18.97C31.6332 18.7758 31.6794 18.5629 31.676 18.348C31.6819 18.0953 31.6096 17.847 31.469 17.637C31.3132 17.4237 31.0936 17.2654 30.842 17.185C30.9577 17.1334 31.0657 17.0661 31.163 16.985C31.2533 16.9102 31.3333 16.8238 31.401 16.728C31.4652 16.6362 31.5148 16.535 31.548 16.428C31.5811 16.3252 31.598 16.218 31.598 16.11C31.6025 15.8989 31.5609 15.6893 31.476 15.496C31.3963 15.3231 31.2779 15.1709 31.13 15.051C30.9723 14.9267 30.7915 14.8349 30.598 14.781C30.3751 14.7187 30.1444 14.6884 29.913 14.691C29.6974 14.6906 29.4831 14.7243 29.278 14.791C29.0903 14.8505 28.9148 14.9433 28.76 15.065C28.6148 15.1808 28.4962 15.3264 28.412 15.492C28.325 15.6654 28.2808 15.857 28.283 16.051H29.271C29.27 15.9699 29.2881 15.8897 29.324 15.817C29.3586 15.7488 29.4073 15.6888 29.467 15.641C29.5305 15.5916 29.6023 15.554 29.679 15.53C29.8603 15.4745 30.0546 15.4776 30.234 15.539C30.3126 15.567 30.3843 15.6117 30.444 15.67C30.501 15.7257 30.5439 15.7943 30.569 15.87C30.5968 15.9521 30.6106 16.0383 30.61 16.125C30.6144 16.2163 30.6005 16.3075 30.5693 16.3933C30.538 16.4792 30.49 16.5579 30.428 16.625C30.3528 16.6925 30.2646 16.7439 30.1688 16.7763C30.0731 16.8086 29.9717 16.8211 29.871 16.813H29.345V17.585H29.871C29.9858 17.5836 30.1002 17.598 30.211 17.628C30.3054 17.6528 30.3933 17.6974 30.469 17.759C30.5414 17.8209 30.5971 17.9 30.631 17.989C30.6714 18.0977 30.6907 18.2131 30.688 18.329C30.6893 18.4244 30.672 18.5192 30.637 18.608C30.6035 18.6896 30.5527 18.763 30.488 18.823C30.4193 18.8855 30.3382 18.9328 30.25 18.962C30.1486 18.9949 30.0426 19.0111 29.936 19.01C29.837 19.0108 29.7385 18.9946 29.645 18.962C29.5607 18.9326 29.4825 18.8882 29.414 18.831C29.348 18.775 29.2953 18.705 29.2597 18.6262C29.2241 18.5473 29.2064 18.4615 29.208 18.375L28.219 18.382ZM8.951 15.5C9.03988 15.4947 9.12883 15.509 9.21159 15.5418C9.29434 15.5747 9.3689 15.6252 9.43 15.69C9.54799 15.8371 9.60746 16.0227 9.597 16.211C9.59661 16.2881 9.58585 16.3648 9.565 16.439C9.53875 16.5281 9.50182 16.6137 9.455 16.694C9.39517 16.7984 9.32835 16.8986 9.255 16.994C9.173 17.103 9.07 17.225 8.949 17.357L7.339 19.068V19.745H10.75V18.945H8.609L9.487 18.019C9.653 17.849 9.805 17.682 9.941 17.525C10.0684 17.3774 10.1844 17.2203 10.288 17.055C10.3794 16.9089 10.4539 16.7529 10.51 16.59C10.5622 16.4347 10.5885 16.2718 10.588 16.108C10.5909 15.9061 10.5553 15.7055 10.483 15.517C10.4156 15.3464 10.3091 15.1939 10.172 15.072C10.0237 14.9453 9.8507 14.8506 9.664 14.794C9.43727 14.7245 9.20111 14.6908 8.964 14.694C8.71818 14.6904 8.474 14.7346 8.245 14.824C8.04183 14.9041 7.85658 15.0238 7.7 15.176C7.55036 15.3235 7.4326 15.5001 7.354 15.695C7.27436 15.8965 7.23397 16.1113 7.235 16.328H8.226C8.22727 16.2167 8.24479 16.1062 8.278 16C8.30686 15.9032 8.35405 15.8129 8.417 15.734C8.47766 15.6595 8.55464 15.6 8.642 15.56C8.73934 15.5175 8.84484 15.4971 8.951 15.5ZM18.751 5.157V8.961H19.739V3.978H19.633L17.572 4.716V5.516L18.75 5.151L18.751 5.157Z" fill="#3E414E"/>
</svg>
