<svg width="37" height="36" viewBox="0 0 37 36" fill="none" xmlns="http://www.w3.org/2000/svg">
<g opacity="0.8">
<path opacity="0.8" d="M17.2085 21.368C17.3078 21.2584 17.429 21.1707 17.5642 21.1108C17.6994 21.0508 17.8456 21.0198 17.9935 21.0198C18.1415 21.0198 18.2877 21.0508 18.4229 21.1108C18.5581 21.1707 18.6793 21.2584 18.7785 21.368L21.6355 24.525L25.4005 20.51L20.5415 14.032C20.1631 13.5145 19.6473 13.1133 19.0526 12.874V7.787H26.5005C26.7137 7.78674 26.9219 7.72215 27.0977 7.60167C27.2736 7.48119 27.409 7.31044 27.4863 7.11175C27.5635 6.91306 27.579 6.69568 27.5307 6.48805C27.4824 6.28042 27.3726 6.09219 27.2155 5.948L25.1605 3.894L27.2475 1.807C27.3954 1.65884 27.496 1.4702 27.5367 1.2649C27.5774 1.0596 27.5563 0.846844 27.4762 0.6535C27.396 0.460155 27.2604 0.294893 27.0864 0.178583C26.9124 0.062272 26.7078 0.000128671 26.4986 0L17.9935 0C17.7127 0 17.4433 0.111573 17.2447 0.310174C17.0461 0.508775 16.9345 0.778136 16.9345 1.059V12.874C16.3398 13.1133 15.824 13.5145 15.4455 14.032L10.5865 20.51L14.3515 24.525L17.2085 21.368Z" fill="#3E414E"/>
<path opacity="0.8" d="M35.7895 34.306L26.6645 22.092L22.3845 26.674C22.286 26.7794 22.167 26.8634 22.0347 26.9208C21.9024 26.9783 21.7597 27.008 21.6155 27.008H21.6015C21.4556 27.0067 21.3115 26.9751 21.1784 26.9152C21.0454 26.8553 20.9262 26.7684 20.8285 26.66L18.0015 23.518L15.1695 26.66C15.0718 26.7684 14.9526 26.8553 14.8195 26.9152C14.6865 26.9751 14.5424 27.0067 14.3965 27.008H14.3875C14.2433 27.008 14.1006 26.9784 13.9683 26.9209C13.836 26.8635 13.7169 26.7794 13.6185 26.674L9.3385 22.092L0.211505 34.306C0.09378 34.4631 0.0220497 34.6499 0.004325 34.8454C-0.0133997 35.0409 0.0235791 35.2375 0.111132 35.4133C0.198684 35.589 0.333363 35.7369 0.500127 35.8405C0.666892 35.9442 0.859176 35.9994 1.05551 36H34.9465C35.1428 35.9994 35.3351 35.9442 35.5019 35.8405C35.6686 35.7369 35.8033 35.589 35.8909 35.4133C35.9784 35.2375 36.0154 35.0409 35.9977 34.8454C35.98 34.6499 35.9082 34.4631 35.7905 34.306H35.7895Z" fill="#3E414E"/>
</g>
</svg>
