<svg width="16" height="16" viewBox="0 0 16 16" fill="none" xmlns="http://www.w3.org/2000/svg">
<path d="M12 5.33331C12 4.27245 11.5786 3.25503 10.8284 2.50489C10.0783 1.75474 9.06087 1.33331 8 1.33331C6.93913 1.33331 5.92172 1.75474 5.17157 2.50489C4.42143 3.25503 4 4.27245 4 5.33331C4 9.99998 2 11.3333 2 11.3333H14C14 11.3333 12 9.99998 12 5.33331Z" stroke="#FE005D" stroke-width="1.5" stroke-linecap="round" stroke-linejoin="round"/>
<path d="M9.15332 14C9.03611 14.2021 8.86788 14.3698 8.66547 14.4864C8.46306 14.6029 8.23357 14.6643 7.99998 14.6643C7.7664 14.6643 7.53691 14.6029 7.3345 14.4864C7.13209 14.3698 6.96386 14.2021 6.84665 14" stroke="#FE005D" stroke-width="1.5" stroke-linecap="round" stroke-linejoin="round"/>
</svg>
