<svg width="16" height="15" viewBox="0 0 16 15" fill="none" xmlns="http://www.w3.org/2000/svg">
<path d="M8 12.25C11.3137 12.25 14 9.7316 14 6.625C14 3.5184 11.3137 1 8 1C4.68629 1 2 3.5184 2 6.625C2 9.7316 4.68629 12.25 8 12.25Z" stroke="white" stroke-width="1.5" stroke-linecap="round" stroke-linejoin="round"/>
<path d="M9.33336 8.575C9.16132 8.74522 8.95478 8.88155 8.72583 8.97599C8.49688 9.07043 8.25013 9.12109 8.00003 9.125C6.82003 9.125 5.8667 8.00625 5.8667 6.625C5.8667 5.24375 6.82003 4.125 8.00003 4.125C8.26911 4.13085 8.53389 4.18949 8.77732 4.29714C9.02075 4.40478 9.23742 4.55905 9.41336 4.75" stroke="white" stroke-width="1.5" stroke-linecap="round" stroke-linejoin="round"/>
<path d="M5.33325 6.625H6.66658" stroke="white" stroke-width="1.5" stroke-linecap="round" stroke-linejoin="round"/>
</svg>
