<svg width="231" height="100" viewBox="0 0 231 100" fill="none" xmlns="http://www.w3.org/2000/svg">
<g clip-path="url(#clip0)">
<path fill-rule="evenodd" clip-rule="evenodd" d="M223.102 47.6584H199.944C195.754 47.6584 192.337 51.0752 192.337 55.2649V75.2117C192.337 79.4014 195.754 82.8185 199.944 82.8185H223.102C227.291 82.8185 230.708 79.4014 230.708 75.2117V55.2649C230.708 51.0752 227.291 47.6584 223.102 47.6584ZM138.012 21.4271H135.165V20.9283C135.945 20.9442 136.44 20.7759 136.093 20.0904C135.567 19.0571 137.847 19.1117 138.183 19.335C138.779 19.7305 138.387 20.8747 138.012 21.4271ZM134.117 22.1191H137.57C137.188 22.6982 136.111 24.6558 135.417 24.6586C135.137 24.269 134.217 23.0014 134.117 22.1191ZM200.065 55.2653H222.98V75.2117H200.065V55.2653ZM153.038 55.2653H184.927V55.2649C184.927 51.0752 181.51 47.6584 177.321 47.6584H152.841C148.653 47.6584 145.235 51.0752 145.235 55.2649V75.2117C145.235 79.4014 148.653 82.8185 152.841 82.8185H177.321C181.51 82.8185 184.927 79.4014 184.927 75.2117V62.05H159.047V62.0504C159.047 65.2867 161.687 67.9263 164.923 67.9263H177.669V75.2117H153.038V55.2653ZM53.464 55.2653H83.9047V55.2649C83.9047 51.0752 80.4873 47.6584 76.2976 47.6584H52.7398C48.55 47.6584 45.133 51.0752 45.133 55.2649V61.4351C45.133 65.6248 48.55 69.0415 52.7398 69.0415H76.3619V75.2117H45.133C45.133 79.4014 48.55 82.8185 52.7398 82.8185H77.0864C81.2761 82.8185 84.6929 79.4014 84.6929 75.2117V69.0415C84.6929 64.8522 81.2761 61.4351 77.0864 61.4351H53.464V55.2653ZM9.63446 55.2653H38.3714V55.2649C38.3714 51.0752 34.9538 47.6584 30.7642 47.6584H7.60633C3.41662 47.6584 -0.000488281 51.0752 -0.000488281 55.2649V75.2117C-0.000488281 79.4014 3.41662 82.8185 7.60633 82.8185H30.7642C34.9538 82.8185 38.3714 79.4014 38.3714 75.2117H9.63446V55.2653ZM145.333 17.9644C145.182 18.0407 145.008 18.1151 144.764 18.1611C143.677 19.6987 144.333 19.5186 142.417 20.8024C142.422 23.3785 142.495 23.6554 143.099 25.938C143.114 25.9926 143.106 26.0455 143.076 26.0936C143.046 26.1416 143.004 26.1727 142.949 26.1841C142.485 26.2837 141.82 26.4548 141.434 26.527C141.446 26.6083 141.63 28.067 141.422 29.1532C141.099 30.8584 137.04 34.5898 136.071 34.7806C134.73 35.0447 133.232 33.8611 130.89 32.8327C130.244 32.5492 128.077 31.125 126.943 30.7465C126.002 30.4329 125.059 32.7231 126.227 33.3377C126.771 33.6236 127.639 34.0087 127.914 34.7191C128.726 36.8253 127.785 44.9486 126.111 46.582C125.316 46.5758 124.647 45.846 124.057 46.0368C123.002 46.6137 123.67 49.836 124.057 50.3967C130.541 57.0673 129.771 62.0072 132.524 65.6963C133.78 65.6963 132.956 67.0262 133.908 68.5887C134.161 69.3914 133.835 70.7545 133.698 71.2712C133.698 71.9422 133.698 72.6129 133.698 73.2838C133.629 73.4933 133.559 73.7028 133.488 73.9122C133.488 74.4992 133.488 75.0862 133.488 75.6729C133.296 76.5305 133.083 77.6802 132.902 78.4815C132.518 80.1713 134.004 81.4845 133.111 83.0922C133.111 84.0806 133.114 83.8839 132.524 84.6852C132.524 86.22 132.163 89.4536 132.524 90.5958C132.776 91.3905 135.658 94.7585 136.381 95.081C138.123 95.8571 140.692 95.6901 139.86 98.4345C134.759 100 131.502 97.5516 128.784 97.5119L128.657 97.9796C126.916 97.9824 125.526 97.5537 125.147 97.4282C125.144 96.9581 125.709 93.3522 125.901 92.7756C126.097 92.468 126.292 92.1603 126.488 91.8533C126.699 91.2394 126.273 86.7358 126.237 85.5235C125.15 84.7253 124.937 82.2914 124.937 80.9545C124.624 79.9199 124.624 78.6934 124.56 77.3494C124.53 76.7192 124.154 75.7931 124.392 75.0022C124.554 74.4626 125.163 74.2268 125.314 73.7864C125.314 73.2838 125.314 72.7805 125.314 72.2775C125.601 70.6898 125.512 69.9583 124.56 69.008C122.175 69.0391 121.846 69.1539 120.536 67.1216C120.129 66.49 116.792 61.2263 116.47 61.0856C113.694 59.8739 114.246 60.3454 113.032 58.1932C112.983 58.1943 112.244 58.44 111.591 59.4169C110.598 60.901 108.839 65.7244 108.337 67.4151C108.058 68.3584 108.339 69.4011 107.919 70.1816C107.614 70.7468 106.623 70.9283 106.409 71.3134C105.437 73.066 106.166 72.9291 104.314 74.1636C103.98 74.5932 103.97 75.2383 103.727 75.7565C103.587 75.9522 103.447 76.1478 103.307 76.3435C102.996 77.0123 103.639 78.232 103.517 78.6489C103.197 79.7471 102.774 80.8553 102.344 81.8768C101.495 83.8912 101.605 86.5671 100.749 87.8057C100.319 88.4279 99.2791 87.8213 98.487 88.3321C98.441 88.765 97.1826 91.6411 96.9357 92.4403C96.9357 93.9631 96.9357 95.4862 96.9357 97.0092C97.1729 97.7794 97.8224 98.5126 97.6286 99.4871C97.4233 100.525 93.8127 100.509 91.8534 100.227C90.5419 100.037 90.1481 99.0709 90.1702 97.953C90.1959 96.6338 92.864 88.0622 92.7021 87.4936C90.6764 85.2148 93.2445 82.8693 94.0021 80.7447C94.3711 79.7091 94.1445 78.2637 94.5463 77.3079C95.2587 76.0085 95.972 74.7087 96.6844 73.4096C97.9844 72.1817 97.4065 72.1199 98.11 71.0199C98.7207 70.0658 99.4614 69.4225 99.0322 67.9602C98.1684 65.0195 100.04 60.8505 100.164 57.7739C99.8322 57.4245 98.7065 57.5351 98.5649 56.5965C98.2782 54.6869 99.2888 51.3051 99.9118 50.9832C100.189 50.8405 100.505 50.9674 100.751 50.8156C100.751 49.3824 99.3269 41.4102 100.408 41.0068C101.076 40.7579 102.609 40.6265 102.904 40.4934C102.886 40.1536 102.653 39.4283 102.371 39.389C101.896 39.323 100.921 39.1387 100.145 38.9596C97.7622 38.4106 99.9667 29.0145 99.9959 28.9766C100.652 28.1109 103.693 29.2783 104.062 27.8022C105.079 26.5052 103.277 21.5125 106.748 15.3666C107.92 13.2911 110.164 11.1952 112.781 12.0837C113.658 12.381 113.126 13.6419 114.668 12.2934C114.706 11.5067 114.341 10.8474 114.122 10.1969C111.56 2.5518 120.242 -1.59068 126.321 2.77747C127.004 3.05446 127.402 3.19074 127.914 3.57393C128.248 5.3049 129.964 8.38454 128.249 10.4067C127.547 10.5571 126.687 10.9492 126.153 11.3288C126.144 12.0279 126.234 12.6716 126.362 13.0891C126.477 13.4646 126.697 13.6136 126.131 13.8435C126.06 13.8722 126.091 14.1062 126.13 14.1947C127.548 14.4737 129.06 13.9323 130.009 13.5503H131.142V12.1226H131.435H131.683V11.0049H132.223V12.9377H133.637V13.5503H154.59V14.6382H155.516V10.6571H156.296V13.8943H158.08V15.743H163.627V15.193H164.55V15.435H167.17V16.9757H164.55V17.2174H163.627V16.6674H158.08V17.2181C157.265 17.2181 156.451 17.2181 155.637 17.2181V16.8451H154.59V17.9644H145.333Z" fill="white"/>
</g>
<defs>
<clipPath id="clip0">
<rect width="230.973" height="100" fill="white"/>
</clipPath>
</defs>
</svg>
