<svg width="310" height="65" viewBox="0 0 310 65" fill="none" xmlns="http://www.w3.org/2000/svg">
<g clip-path="url(#clip0)">
<path d="M90.8208 13.3907C68.6128 13.1665 69.0822 12.8702 69.0032 13.9338C68.8924 15.4162 71.6982 14.2924 72.3693 16.689L72.3725 16.7126C72.4402 18.8431 72.273 45.8851 72.2623 47.566C72.2386 47.7365 72.0488 48.7737 70.9191 49.391C70.5921 49.57 70.4276 49.9475 70.5201 50.3083C70.612 50.6691 70.9373 50.9219 71.31 50.9219H71.4804C74.9035 50.9219 79.5359 51.0213 82.1626 51.495C84.0188 51.83 85.8346 52 87.5602 52C87.5612 52 87.5607 52 87.5612 52C100.978 52 108.052 41.7437 108.103 31.6132C108.147 22.9216 102.757 13.5117 90.8208 13.3907ZM79.1401 16.489C102.793 14.9705 103.183 32.8547 99.6232 41.6076C97.76 46.1884 91.2322 48.9259 85.996 48.9259C82.7568 48.9253 80.3919 47.901 79.3267 46.0389L79.1401 16.489Z" fill="white"/>
<path d="M122.217 32.3806C122.217 45.1416 132.661 51.8183 142.977 51.8183C152.981 51.8183 163.613 44.684 163.613 31.4627C163.613 6.27791 122.217 5.63373 122.217 32.3806ZM129.629 32.301C129.629 22.9443 132.325 15.4174 141.768 15.4174C149.176 15.4174 155.922 23.033 155.922 31.4127C156.082 38.945 154.409 48.0958 145.539 48.9507C136.363 48.9373 131.01 43.3246 129.632 32.3166L129.629 32.301Z" fill="white"/>
<path d="M208.433 12.8933C207.616 13.1535 206.624 13.3283 205.967 13.3283C205.29 13.3283 180.88 13.2933 179.414 13.2912C178.402 12.7615 176.828 12.1163 176.584 13.2299L175.572 17.8332C175.487 18.2171 175.688 18.6064 176.05 18.7597C176.412 18.9119 176.831 18.7855 177.048 18.4575C177.488 17.7913 178.15 17.2869 179.071 16.9169C181.434 16.8223 187.777 16.8116 189.171 16.8099L189.026 47.7951C189.024 47.8408 188.961 48.9135 187.962 49.5216C187.261 49.9486 187.564 51.0337 188.386 51.0337C188.392 51.0337 197.076 50.9944 197.082 50.9944C197.938 50.9907 198.209 49.8287 197.44 49.4485C196.728 49.0952 196.35 48.5624 196.289 47.8698C196.255 46.4287 196.04 21.8714 195.996 16.8164L204.884 17.0272C204.964 17.031 206.839 17.1374 207.504 19.0065C207.634 19.3748 208.01 19.598 208.396 19.5388C209.253 19.4071 209.094 18.793 209.211 14.9489C209.396 14.5284 209.549 13.9456 209.485 13.5439C209.408 13.0497 208.91 12.7438 208.433 12.8933Z" fill="white"/>
<path d="M257.998 39.5585C255.812 39.5241 251.254 39.5198 250.285 39.5192C250.254 39.4418 239.361 12.4987 239.361 12.4987C239.066 11.8013 238.118 11.8637 237.855 12.5094L223.619 47.5231C223.613 47.536 222.98 48.8007 221.437 49.54C220.657 49.9143 220.928 51.0892 221.788 51.0908C221.833 51.0908 228.243 51.101 228.243 51.101C229.16 51.101 229.37 49.8169 228.513 49.5158C228.06 49.2889 227.853 48.9701 227.981 48.4807C228.438 46.9095 229.656 43.4994 229.951 42.6783L244.157 42.7154L246.949 49.3314C246.96 49.3588 246.989 49.4825 246.897 49.6201C246.423 50.138 246.785 50.9763 247.487 50.9865C247.544 50.9876 255.59 51.101 255.59 51.101C256.07 51.101 256.416 50.7208 256.416 50.2858C256.416 49.9283 256.185 49.6239 255.864 49.5142C254.796 48.9991 254.348 48.5098 251.604 42.6901C254.028 42.7417 254.486 41.6491 258.09 41.1824C258.514 41.1275 258.823 40.7544 258.799 40.3279C258.775 39.9015 258.425 39.5655 257.998 39.5585ZM237.259 23.6218L242.979 39.4687L231.058 39.6063L237.259 23.6218Z" fill="white"/>
<path d="M308.701 42.5176C307.917 44.2329 306.949 45.9165 304.53 46.0144C303.27 46.0638 296.559 46.3295 292.343 46.2983C317.623 27.0175 310.891 12.5015 295.83 12.5015C292.528 12.5015 289.209 13.2967 286.725 14.6835C286.485 14.8174 286.329 15.0626 286.309 15.3358C286.246 16.209 286.414 17.9732 286.811 20.5795C286.867 20.9484 287.166 21.2323 287.538 21.2683C287.906 21.3017 288.258 21.0828 288.384 20.7322C289.837 16.6811 292.757 15.2379 295.005 15.2379C298.221 15.2379 301.584 17.9985 301.787 23.2745C302.24 35.016 287.937 46.0972 284.731 49.1492C284.187 49.6181 283.761 50.1123 284.211 50.6812C284.211 51.7055 285.508 51.8362 285.797 51C288.548 50.9839 303.482 50.8979 306.247 50.928C308.25 51.0731 309.241 49.9085 309.285 48.6061L310.247 42.994C310.406 42.0568 309.094 41.6562 308.701 42.5176Z" fill="white"/>
<path d="M55.2958 16.7728C55.0794 6.53636 55.0659 8.74902 55.2767 5.55865C55.2892 5.36951 55.1464 5.20607 54.9574 5.19314C39.7147 4.15053 39.1371 4.03032 37.956 4.03032C17.162 4.02865 28.0788 3.68885 0.323323 5.32614C0.134731 5.3374 -0.00938952 5.49862 0.000477888 5.68707C1.78926 40.0065 1.72394 34.4079 0.810161 57.2808C0.80363 57.4451 0.914395 57.5909 1.0745 57.6287C3.1518 58.1199 2.78364 57.9265 7.62938 57.93C7.6373 57.9324 16.7103 56.9416 16.7185 56.9408C16.7613 56.9479 29.265 59 29.3085 59C29.3181 59 29.3275 58.9996 29.3371 58.9987C43.9911 57.7707 39.7907 58.0675 49.2447 57.5435L54.7959 58.6663C55.0118 58.7097 55.2099 58.5428 55.2075 58.3258C55.0873 47.1495 55.2958 16.7728 55.2958 16.7728ZM32.7621 15.9581C32.8034 15.9481 32.8624 15.9336 32.9361 15.914L36.8872 15.0236C38.9112 14.5165 39.2102 14.3929 40.9422 13.5786H40.9423C41.742 13.856 43.9345 15.0693 44.4903 15.7659C44.8576 16.227 44.8334 16.3296 44.7179 16.8233C44.6957 16.9181 44.6702 17.0272 44.6436 17.1561C44.6418 17.1645 44.6404 17.1733 44.6391 17.1819L43.7702 23.9812C42.9105 24.0129 42.8388 23.9471 42.601 23.7282C42.5029 23.6376 42.3807 23.525 42.1653 23.3806C40.858 22.5031 36.5794 19.3373 35.2284 18.2476L32.5725 16.1137L32.5939 16.093C32.6227 16.0644 32.6483 16.0259 32.6652 15.9891C32.6786 15.9786 32.7311 15.9657 32.7621 15.9581ZM38.9194 50.1924C38.8417 50.1147 5.71704 14.9986 5.69272 14.9501L8.58665 12.73L49.0278 39.5084C48.6935 40.4661 48.5601 41.5651 48.3591 42.4778C47.6487 45.7011 46.735 47.1114 45.3063 50.1739C43.2614 50.2552 39.0601 50.2395 38.9194 50.1924ZM8.78678 40.6918C9.1591 39.7969 9.67096 38.3574 10.1012 37.6282C12.2165 38.95 20.4795 47.2524 21.1982 48.3734C20.8001 48.5211 19.0904 48.7751 16.2499 49.9099C14.4501 50.6278 12.7507 51.309 11.1092 50.7519C10.9455 50.6968 10.5091 50.3264 9.86205 49.7679C8.68019 48.7476 7.60992 48.0126 6.98758 47.6452C5.92607 47.0186 6.09145 47.1508 8.78678 40.6918Z" fill="#EA473B"/>
<path d="M4.2272 40.7648C3.96787 27.3876 4.2575 34.6745 2.72041 5.18481L0.323323 5.32615C0.134731 5.33741 -0.00938952 5.49863 0.000477888 5.68708L1.27671 30.1731C1.5302 43.2527 1.59955 37.5209 0.810161 57.2809C0.803629 57.4451 0.914394 57.5909 1.0745 57.6287C2.24677 57.906 2.73403 57.9681 3.55872 57.9681C3.53287 57.8798 3.50438 58.8551 4.2272 40.7648Z" fill="#D82B27"/>
<path d="M22.9185 49.1293C22.9185 49.1293 24.3203 48.6467 23.168 47.382C18.4647 42.1363 15.5996 40.2359 12.8763 37.2482C11.7382 36.0162 10.1013 37.628 10.1013 37.628C20.7445 47.0888 18.6123 45.7193 20.4884 47.5307C20.7374 47.7712 20.9339 47.961 21.1983 48.3732C21.1491 48.3914 20.9316 48.4463 20.6305 48.5223C16.2024 49.6397 15.5381 50.3983 13.5609 50.822C15.4061 52.3264 18.6598 50.491 20.9795 49.6923C21.5342 49.5014 22.2689 49.299 22.9185 49.1293Z" fill="#D82B27"/>
<path d="M51.0411 36.7231C51.041 36.723 12.3783 12.0667 12.3783 12.0667C11.083 11.2407 9.68612 11.6382 8.58667 12.73L49.0278 39.5084C48.6935 40.466 48.5601 41.5651 48.3591 42.4777C47.6487 45.7011 46.7351 47.1114 45.3064 50.1739C45.3064 50.1739 48.969 50.878 50.0857 48.3993C52.7058 42.823 52.1008 41.7712 52.7251 40.0105C52.6511 39.0173 52.7891 37.838 51.0411 36.7231Z" fill="#D82B27"/>
<path d="M44.643 17.1561C44.6412 17.1646 44.6398 17.1733 44.6386 17.1819L43.7697 23.9813C43.7697 23.9813 47.2075 26.1046 47.6394 22.6135C47.6395 22.6123 47.6397 22.6112 47.6398 22.6101L48.351 16.8621C48.3522 16.8534 48.3536 16.8445 48.3555 16.8357C48.3826 16.704 48.4088 16.5925 48.4314 16.4957C48.5494 15.9909 48.5742 15.886 48.1986 15.4146C47.8039 14.9198 46.0353 13.614 44.7177 12.7672C43.474 11.9333 41.9969 12.936 41.9969 12.936C41.6282 13.2186 41.2987 13.4654 40.9417 13.5787C41.8449 14.0672 44.1334 15.3195 44.4896 15.7659C44.8569 16.227 44.8327 16.3296 44.7173 16.8234C44.695 16.9183 44.6696 17.0274 44.643 17.1561Z" fill="#D82B27"/>
</g>
<defs>
<clipPath id="clip0">
<rect width="310" height="65" fill="white"/>
</clipPath>
</defs>
</svg>
