<svg width="189" height="54" viewBox="0 0 189 54" fill="none" xmlns="http://www.w3.org/2000/svg">
<path d="M0 26.3332C0 40.8195 0.0358275 52.6665 0.0835976 52.6665C0.155253 52.6665 9.8884 50.8632 11.0827 50.6243L11.7037 50.5049V31.17H19.108V29.4025C19.108 28.4351 19.1439 25.9153 19.1916 23.7895L19.2633 19.944H11.7037V11.4648H16.0627C18.4631 11.4648 20.4217 11.4409 20.4217 11.4051C20.4217 11.2737 21.3771 1.07483 21.4368 0.561298L21.5085 0H0V26.3332ZM178.636 1.54058L169.106 2.32879V49.9078L169.5 49.9675C169.846 50.0272 188.298 51.3648 188.668 51.3528C188.775 51.3528 188.811 50.0869 188.811 45.4413V39.5297H180.69V30.9311H187.617V20.6606H180.451V13.8533L180.726 13.8055C180.869 13.7697 182.088 13.722 183.437 13.6742C184.787 13.6384 186.542 13.5786 187.354 13.5309L188.811 13.4592V0.716551L188.489 0.728493C188.298 0.740436 183.867 1.09871 178.636 1.54058ZM117.455 3.18865C117.574 4.3829 118.936 22.3803 118.912 22.4042C118.9 22.428 117.144 18.1168 115.006 12.8263C112.881 7.53573 111.089 3.15282 111.042 3.06923C110.97 2.93786 107.674 3.54693 102.264 4.69341L101.75 4.80089V45.8593H112.379L112.319 44.9994C112.2 43.3991 111.758 30.1668 111.806 29.6413C111.842 29.1756 112.2 29.9877 115.592 38.1802C117.646 43.1603 119.389 47.2804 119.437 47.3521C119.509 47.4237 121.169 47.3162 123.987 47.0774C126.435 46.8624 128.442 46.6714 128.442 46.6594C128.454 46.6475 128.394 38.0369 128.31 27.5275C128.227 17.0181 128.155 7.09385 128.155 5.45773L128.143 2.50793H117.383L117.455 3.18865ZM33.3793 3.23642C26.2377 3.71412 22.3086 8.59861 21.0666 18.5109C20.8158 20.565 20.7083 27.5394 20.8875 29.9757C21.4846 37.8817 23.6223 43.0169 27.42 45.6324C29.4622 47.0296 32.5314 47.782 35.5648 47.6029C39.0162 47.4118 41.3689 46.4325 43.4827 44.3187C45.2144 42.587 46.1578 40.9628 47.0655 38.1922C48.3314 34.3228 48.9046 28.5426 48.618 22.5236C48.2955 15.788 47.2804 11.5962 45.1905 8.38365C43.1961 5.32636 40.0433 3.49916 36.365 3.27225C35.7798 3.23642 35.1588 3.20059 34.9916 3.17671C34.8244 3.16477 34.1078 3.18865 33.3793 3.23642ZM35.0632 12.6232C35.935 13.5667 36.3052 17.3286 36.3052 25.3778C36.3052 35.2901 35.6842 39.4103 34.3228 38.5266C33.7376 38.1325 33.2957 36.2097 33.0808 33.0211C32.9255 30.6923 32.9255 20.0276 33.0808 17.7943C33.3077 14.6415 33.7137 12.8979 34.3228 12.4799C34.6572 12.2411 34.7169 12.253 35.0632 12.6232ZM50.1586 24.9479V46.6952H61.1099L61.1815 45.1785C61.2293 44.3306 61.3248 41.5838 61.3965 39.052C61.4681 36.5202 61.5637 34.2989 61.6114 34.1198C61.6712 33.869 62.1847 35.4812 63.7611 40.927C64.9076 44.8561 65.8749 48.1164 65.9227 48.1642C66.0182 48.2716 77.2203 47.3879 77.3397 47.2685C77.3756 47.2207 76.1335 43.3155 74.581 38.5624L71.7626 29.9399L72.3597 29.4144C74.3422 27.6828 75.9783 24.3388 76.444 21.0308C76.6471 19.5857 76.5157 16.003 76.2052 14.6774C75.0109 9.48236 71.8462 5.44579 67.8096 3.94103C66.0541 3.29613 66.1974 3.30808 57.8973 3.26031L50.1586 3.21254V24.9479ZM62.4713 13.507C63.3192 13.925 64.0119 14.9998 64.3821 16.4807C64.6329 17.4719 64.5971 20.6128 64.3224 21.616C63.8089 23.5029 62.9012 24.6016 61.5398 25.0196L61.2651 25.0912V13.1368L61.6592 13.2204C61.8622 13.2562 62.2324 13.3876 62.4713 13.507ZM76.7904 8.89717V14.4504H82.8811V46.4564H94.3459V16.3612H100.556V5.25471L100.293 5.20694C100.042 5.14722 77.2681 3.33196 76.9456 3.3439C76.8262 3.3439 76.7904 4.53816 76.7904 8.89717ZM130.651 26.2138V47.8895H142.474V4.53816H130.651V26.2138ZM155.969 6.04291C149.496 6.38925 144.11 6.67587 144.003 6.67587C143.8 6.68781 143.788 7.03414 143.788 12.3008V17.9138H149.879V49.3226H161.463V16.6001H167.912V10.9871C167.912 7.894 167.876 5.38607 167.828 5.38607C167.768 5.39802 162.442 5.68464 155.969 6.04291Z" fill="white"/>
</svg>
