<svg width="169" height="64" viewBox="0 0 169 64" fill="none" xmlns="http://www.w3.org/2000/svg">
<path d="M84.4205 0.0972443C84.1648 0.150505 83.8452 0.257027 83.7068 0.352898C83.4831 0.491375 83.4618 0.491375 83.3979 0.299637C83.3552 0.182461 83.2807 0.0865898 83.2168 0.0865898C83.1635 0.0865898 83.1315 0.161156 83.1741 0.246376C83.2061 0.331593 83.1848 0.406158 83.1315 0.406158C83.0676 0.406158 83.025 0.342243 83.025 0.257027C83.025 0.0652885 82.0663 0.0546341 79.5737 0.182461C77.6456 0.288982 77.358 0.374203 77.7948 0.736378C77.9333 0.842899 77.9972 0.93877 77.9439 0.93877C77.39 0.93877 76.0052 1.21573 75.7815 1.36486C75.398 1.64182 74.8228 1.74834 74.8228 1.54595C74.8228 1.46073 74.8974 1.32225 74.9932 1.24768C75.1424 1.13051 75.0572 1.0879 74.3754 0.917465C73.3848 0.683117 73.2676 0.683117 73.0119 0.93877C72.7776 1.17312 72.5858 1.21573 72.5858 1.03464C72.5858 0.970726 72.4793 0.93877 72.3515 0.960075C72.0106 1.00268 72.0213 1.40747 72.3515 1.45008C72.49 1.47138 72.6711 1.42877 72.7669 1.34356C72.8734 1.25834 72.9161 1.25834 72.8734 1.3329C72.8308 1.40747 72.8734 1.47138 72.98 1.50334C73.0971 1.53529 73.0545 1.5566 72.8734 1.56725C72.7137 1.56725 72.426 1.64182 72.2343 1.71638C72.0426 1.8016 71.8295 1.84421 71.755 1.81225C71.6165 1.76965 68.3782 2.47269 67.9521 2.64313C67.6432 2.7603 65.321 3.44205 64.3197 3.70835C63.574 3.90009 63.3823 3.92139 62.9882 3.81487C62.7112 3.74031 62.5088 3.72966 62.4875 3.79357C62.4769 3.84683 62.3384 3.86813 62.1999 3.83618C62.0188 3.80422 61.9336 3.83618 61.9336 3.93205C61.9336 4.05988 62.5727 4.09183 65.534 4.11314C69.1558 4.14509 70.2423 4.19835 70.2423 4.34748C70.2423 4.50727 69.731 4.52857 66.1412 4.50727C62.9882 4.49662 62.4769 4.46466 62.1786 4.31553C61.7312 4.08118 61.6992 4.08118 61.7419 4.39009C61.7738 4.62444 61.6566 4.73096 60.9216 5.17836C59.2173 6.21163 58.7486 6.53119 58.6847 6.71228C58.6527 6.80815 58.4077 6.98924 58.1414 7.11707C57.8112 7.27685 57.5875 7.50055 57.3851 7.83076L57.1081 8.31012L56.9164 8.06512C56.6714 7.7562 56.6607 7.55381 56.8738 7.47924C57.0442 7.40468 57.0975 7.11707 56.927 7.11707C56.7353 7.11707 56.3838 7.58577 56.4583 7.7562C56.4903 7.84142 56.5436 7.9799 56.5755 8.04381C56.6394 8.20359 56.4477 8.21424 55.7127 8.11838C55.3186 8.05446 55.244 8.02251 55.3399 7.90533C55.5636 7.63903 55.3612 7.44728 54.8286 7.41533L54.3172 7.38337L54.3066 5.98793C54.3066 5.23162 54.264 4.47531 54.2214 4.31553C54.1362 3.97466 53.8912 3.93205 53.8059 4.24096C53.7527 4.45401 53.6568 4.45401 45.6037 4.45401C38.6052 4.45401 37.4015 4.4327 37.0819 4.29422C36.1445 3.90009 36.283 4.1664 37.5187 5.15705C38.0832 5.6151 38.8502 6.24358 39.2017 6.56315C39.8622 7.12772 40.3202 7.78816 40.1711 7.92664C40.1285 7.9799 39.8409 7.89468 39.5319 7.7562C39.0633 7.54316 38.7863 7.50055 37.7211 7.47924C36.3789 7.45794 36.1339 7.57511 36.9967 7.83076C37.3802 7.93729 37.508 7.93729 37.7637 7.80946C38.1472 7.60707 38.2963 7.60707 38.2217 7.80946C38.1791 7.89468 38.2111 7.96925 38.2963 7.96925C38.3709 7.96925 38.3922 8.0012 38.3496 8.04381C38.2111 8.18229 34.9941 8.15033 34.9408 8.01185C34.9089 7.93729 35.0261 7.86272 35.2071 7.84142C35.3776 7.80946 35.5161 7.84142 35.5161 7.90533C35.5161 7.96925 35.5693 7.95859 35.6439 7.88403C35.7184 7.80946 35.8782 7.7562 36.0167 7.7562C36.283 7.7562 36.3469 7.59642 36.1126 7.5112C36.038 7.47924 35.1113 7.44728 34.0674 7.43663C33.0234 7.43663 32.15 7.40468 32.1286 7.38337C32.0647 7.31946 33.1087 6.03054 34.0993 4.94401L34.8876 4.08118L34.5467 4.04922C34.323 4.02792 34.1526 4.08118 34.0247 4.21966C33.8543 4.40075 33.62 4.42205 31.5854 4.48597C30.3497 4.51792 27.6441 4.52857 25.5775 4.49662C22.5523 4.44336 21.7427 4.40075 21.3699 4.27292C21.0716 4.15575 20.8799 4.13444 20.8053 4.20901C20.7414 4.27292 21.1249 4.63509 21.9238 5.24227C22.6055 5.75358 23.4258 6.44598 23.7666 6.7762L24.3845 7.38337L23.1595 7.41533C22.041 7.43663 21.9238 7.45794 21.7534 7.68163L21.5616 7.91599V7.67098C21.5616 7.43663 21.5297 7.42598 20.9012 7.45794C20.3686 7.47924 20.2301 7.52185 20.1981 7.67098C20.1662 7.83076 20.2408 7.86272 20.6455 7.86272C21.1249 7.86272 21.2953 7.99055 20.9758 8.11838C20.8905 8.15033 20.4431 8.15033 19.9851 8.10772C19.4205 8.06512 19.069 8.08642 18.9092 8.17164C18.7281 8.27816 18.6429 8.27816 18.5151 8.17164C18.3873 8.06512 18.3233 8.08642 18.1955 8.2462C18.0997 8.35273 18.057 8.38468 18.0997 8.31012C18.1529 8.21424 18.0144 8.18229 17.5777 8.18229C17.1196 8.18229 16.9279 8.23555 16.7681 8.39534C16.5231 8.64034 16.3207 8.67229 16.4059 8.45925C16.4699 8.28881 15.9053 7.78816 15.4259 7.58577C15.2235 7.50055 14.7655 7.45794 14.3288 7.46859C13.7216 7.48989 13.5725 7.52185 13.5725 7.66033C13.5725 7.76685 13.4872 7.82011 13.3381 7.82011C13.1464 7.80946 13.0824 7.87337 13.0611 8.09707C13.0398 8.31012 13.1677 8.55512 13.5725 9.05577C14.1264 9.73751 15.0105 11.4312 15.3194 12.3899C15.4153 12.6882 15.4899 13.2101 15.5005 13.5617C15.5112 13.9132 15.5644 14.4884 15.6177 14.8506C15.7136 15.4471 15.7029 15.543 15.4579 16.0223C15.2875 16.3419 15.1596 16.8213 15.1064 17.29C15.0744 17.6947 14.9679 18.1315 14.8933 18.2487C14.8081 18.3658 14.7442 18.7174 14.7442 19.0476C14.7442 19.431 14.7122 19.5802 14.6483 19.4843C14.5738 19.3671 14.4885 19.463 14.2862 19.8571C13.7429 20.933 13.3594 21.2313 11.6337 21.9237C9.88678 22.6267 8.76829 22.9463 7.66046 23.0422C6.54198 23.138 6.36089 23.1913 6.29698 23.4256C6.24371 23.6067 6.14784 23.628 5.45545 23.628C5.01871 23.628 4.37957 23.6813 4.04935 23.7559C3.63392 23.8304 3.41022 23.8411 3.36761 23.7665C3.325 23.7132 3.17587 23.5961 3.03739 23.5215C2.81369 23.4043 2.76043 23.415 2.63261 23.5854C2.49413 23.7665 2.48348 23.7665 2.32369 23.5641C2.21717 23.4256 2.1426 23.4043 2.11065 23.4896C2.07869 23.5641 1.99347 23.5961 1.91891 23.5641C1.83369 23.5322 1.74847 23.5854 1.71651 23.6706C1.6313 23.8837 1.10934 23.8943 1.10934 23.6919C1.10934 23.6174 1.25847 23.5215 1.4289 23.4789C1.76978 23.415 1.85499 23.2339 1.58869 23.138C1.24782 22.9995 0.800422 23.8943 0.779118 24.7359C0.768466 25.2791 0.683248 25.4815 0.448899 25.5241C0.310419 25.5454 0.257158 25.4815 0.257158 25.2898C0.257158 25.0874 0.299767 25.0448 0.470203 25.0874C0.587378 25.1193 0.683248 25.0874 0.683248 25.0235C0.683248 24.9596 0.608682 24.9063 0.523464 24.9063C0.310419 24.9063 0.321072 24.7359 0.576725 24.1713C0.6939 23.9156 0.78977 23.5748 0.78977 23.4043C0.78977 23.1806 0.832379 23.1167 0.949554 23.1593C1.03477 23.2019 1.10934 23.17 1.10934 23.0954C1.10934 23.0315 1.01347 22.9463 0.906945 22.9143C0.725857 22.8717 0.683248 22.7332 0.619334 22.0195C0.587378 21.5615 0.512812 21.178 0.470203 21.178C0.182593 21.178 0.0973748 21.5935 0.0654181 23.138C0.0121569 25.162 0.00150469 26.3763 0.0121569 26.7172C0.0121569 26.8663 0.0121569 27.4415 0.00150469 27.9954C-0.00914754 28.8583 0.0334614 29.082 0.235854 29.5081C0.459551 29.9661 0.512812 30.0087 0.78977 29.9448C1.07738 29.8915 1.09868 29.9128 1.08803 30.2218C1.07738 30.5946 1.03477 30.6159 0.704552 30.3815C0.576725 30.2963 0.416942 30.2537 0.363681 30.2857C0.182593 30.3922 0.246506 31.0739 0.470203 31.5107C0.683248 31.9368 0.896292 32.0753 0.896292 31.7876C0.896292 31.6598 1.59934 31.4361 1.70586 31.532C1.72717 31.5533 1.57804 31.8089 1.36499 32.0966C1.04542 32.5546 0.949554 32.6185 0.672595 32.5972L0.342376 32.5546L0.395637 33.3535C0.427594 33.7903 0.534116 34.3016 0.629987 34.4827C0.725857 34.6744 0.768466 34.9087 0.736509 35.0153C0.661943 35.2496 0.970858 36.6983 1.11999 36.7835C1.17325 36.8261 1.21586 37.0072 1.21586 37.1883C1.21586 37.4014 1.35434 37.7422 1.58869 38.0831C1.86565 38.4986 1.96152 38.7542 1.96152 39.0844C1.96152 39.7236 2.31304 40.3733 2.97348 40.9592C3.44218 41.396 3.5487 41.5557 3.66587 42.0564C3.84696 42.8553 4.51805 44.2827 5.10393 45.1029C5.37023 45.4758 6.30763 46.5516 7.18111 47.4997L8.77895 49.2254V52.2612C8.77895 54.9563 8.80025 55.2758 8.93873 55.1586C9.07721 55.0415 9.08786 55.0521 9.02395 55.2439C8.73634 56.0002 7.12785 57.4595 5.83893 58.12C5.60458 58.2371 5.11458 58.5567 4.74175 58.823C4.2837 59.1426 3.75109 59.4089 3.17587 59.5793C2.68587 59.7285 2.25978 59.8989 2.22782 59.9522C2.18521 60.0267 7.09589 60.0587 16.3846 60.0587C26.3764 60.0587 30.616 60.0267 30.616 59.9415C30.616 59.8776 30.7119 59.6006 30.8291 59.3237L31.0528 58.823L31.7239 58.8976C33.6732 59.1319 36.9115 59.2171 43.9846 59.1958C51.1748 59.1745 51.6755 59.1639 52.0909 58.9828C52.5277 58.7911 52.549 58.7911 53.3585 58.9934C54.3812 59.2598 55.9577 59.2811 56.6501 59.0467C57.0975 58.8976 57.1614 58.8976 57.417 59.0574C57.662 59.2278 58.184 59.2385 64.2558 59.1745C70.9986 59.1 73.5658 59.1745 75.6324 59.4728C77.9119 59.8137 79.872 60.4848 81.2781 61.3902C81.6189 61.6139 82.3433 62.2424 82.8652 62.7856C83.8559 63.7976 84.1329 64 84.5163 64C84.74 64 84.8998 63.723 85.4324 62.3489C85.6348 61.8269 85.6455 61.8163 86.1355 61.7843C86.5083 61.763 86.8066 61.6352 87.3605 61.273C88.5961 60.4635 90.6094 59.803 92.8464 59.4728C94.4975 59.2385 97.5866 59.0787 99.014 59.1532C100.239 59.2278 100.239 59.2278 100.58 58.9402L100.921 58.6526L101.262 58.9402L101.592 59.2278L110.55 59.1852L119.509 59.1532L119.935 58.8976C120.169 58.7484 120.404 58.5674 120.446 58.4928C120.574 58.2797 120.766 58.3224 121.16 58.6739C121.522 58.9721 121.565 58.9828 122.726 58.9934C124.1 58.9934 124.867 58.855 125.197 58.5567C125.314 58.4395 125.421 58.3969 125.421 58.4502C125.421 58.5034 125.378 58.5887 125.314 58.6206C125.261 58.6526 125.208 58.8017 125.208 58.9402C125.208 59.1745 125.25 59.1852 125.826 59.1852C126.23 59.1852 126.539 59.1213 126.763 58.9828C127.179 58.7271 127.232 58.7271 127.232 59.0041C127.232 59.2171 127.274 59.2171 128.382 59.1745C129.011 59.1426 129.575 59.1106 129.629 59.1106C129.692 59.1106 130.396 59.1319 131.216 59.1532C132.164 59.1958 132.739 59.1745 132.824 59.1C132.899 59.0361 133.889 58.9402 135.019 58.8869C136.915 58.7804 138.342 58.6526 139.077 58.5034C139.322 58.4502 139.397 58.4928 139.471 58.6952C139.642 59.1532 142.358 60.0587 144.829 60.4848C151.902 61.6885 159.018 59.9522 162.608 56.1493C164.344 54.3065 165.399 51.8351 165.548 49.2467C165.644 47.5849 165.164 45.6782 164.291 44.2614C163.907 43.6329 163.897 43.4518 164.28 43.3773C164.834 43.2601 165.782 41.3533 165.793 40.3201C165.793 40.0431 165.878 39.6383 165.995 39.4146C166.102 39.2016 166.304 38.669 166.443 38.2322C166.656 37.5718 166.752 37.4227 166.997 37.3268C167.178 37.2522 167.316 37.1138 167.348 36.9433C167.391 36.7942 167.551 36.2296 167.721 35.6864C168.041 34.6744 168.104 34.0566 167.934 33.6092C167.859 33.4174 167.891 33.2257 168.083 32.8316C168.232 32.544 168.392 32.0007 168.456 31.6172C168.594 30.7224 168.594 28.0274 168.456 27.9422C168.317 27.857 168.317 27.2711 168.467 26.4296C168.562 25.8543 168.562 25.6733 168.413 25.3004C168.222 24.7891 168.243 23.1593 168.445 22.6374C168.509 22.4669 168.594 21.9343 168.626 21.455C168.701 20.5815 168.69 20.5602 168.424 20.3791C168.03 20.1234 167.806 20.2406 167.007 21.1248C166.56 21.6148 166.187 21.9343 166.006 21.9769C165.846 22.0089 165.473 22.19 165.196 22.3711C164.845 22.5948 164.504 22.7119 164.152 22.7439C163.854 22.7652 163.162 22.8717 162.608 22.9889C160.967 23.3191 160.424 23.2978 159.615 22.893C159.231 22.7119 158.656 22.5308 158.336 22.4882C158.017 22.4563 157.676 22.3711 157.591 22.2965C157.505 22.2219 157.218 22.1367 156.952 22.0941C156.398 22.0089 156.099 21.7745 156.099 21.423C156.099 21.2526 155.865 20.9117 155.407 20.4324C154.544 19.5163 153.948 18.6002 153.628 17.716C153.458 17.226 153.33 17.0236 153.202 17.0236C153.095 17.0236 152.861 16.8852 152.669 16.7147L152.328 16.4058L152.605 15.4152C152.765 14.8612 152.946 14.0517 153.01 13.6149C153.17 12.5071 153.639 11.2075 154.193 10.3127C154.97 9.06643 155.247 8.48055 155.247 8.10772C155.247 7.46859 155.034 7.43663 150.922 7.43663C147.215 7.43663 146.459 7.5112 146.587 7.82011C146.64 7.96925 146.619 7.9799 146.427 7.87337C146.299 7.80946 146.022 7.7775 145.799 7.80946C145.554 7.85207 145.213 7.80946 144.925 7.71359C144.148 7.42598 143.892 7.48989 143.945 7.93729C143.956 8.01185 143.913 8.07577 143.849 8.07577C143.594 8.07577 143.317 7.84142 143.306 7.61772C143.295 7.44728 143.285 7.42598 143.242 7.56446C143.199 7.7349 143.178 7.7349 142.944 7.58577C142.667 7.40468 142.028 7.42598 141.964 7.61772C141.932 7.69229 142.102 7.78816 142.379 7.86272C143.285 8.08642 143.306 8.17164 142.443 8.17164C141.943 8.18229 141.612 8.2249 141.612 8.28881C141.612 8.36338 141.548 8.36338 141.41 8.28881C141.293 8.23555 141.026 8.18229 140.813 8.18229C140.451 8.18229 140.43 8.20359 140.462 8.4699C140.483 8.7149 140.558 8.77882 140.813 8.80012C141.389 8.86403 141.293 8.98121 140.707 8.94925C140.142 8.90664 140.121 8.91729 139.897 9.29012C139.78 9.50317 139.599 9.6736 139.503 9.6736C139.397 9.6736 139.226 9.70556 139.109 9.73751C138.939 9.78012 138.896 9.73751 138.885 9.52447C138.875 9.37534 138.8 9.1836 138.726 9.09838C138.406 8.74686 138.353 8.65099 138.395 8.52316C138.417 8.45925 138.481 8.39534 138.544 8.39534C138.608 8.39534 138.63 8.45925 138.598 8.53381C138.534 8.7149 138.8 9.07708 138.939 8.98121C139.003 8.94925 139.045 8.77882 139.034 8.60838C139.013 8.31012 138.992 8.29947 138.257 8.23555C137.138 8.13968 136.883 8.07577 137.021 7.93729C137.224 7.7349 137.149 7.56446 136.819 7.44728L136.489 7.34076L136.553 6.13706C136.627 4.78423 136.531 4.10249 136.254 4.04922C136.126 4.02792 136.073 4.08118 136.073 4.23031V4.45401H123.727C113.948 4.45401 111.371 4.42205 111.328 4.31553C111.211 3.98531 111.094 4.44336 111.094 5.25293V6.13706L111.765 6.54185C112.138 6.7762 112.542 7.0638 112.66 7.19163L112.883 7.43663H112.404C111.956 7.43663 111.861 7.38337 111.03 6.64837C110.54 6.22228 109.847 5.66836 109.496 5.42336C108.921 5.01858 108.857 4.93336 108.803 4.52857C108.75 4.04922 108.452 3.84683 108.356 4.21966C108.303 4.42205 108.111 4.4327 103.104 4.50727C97.7145 4.59249 97.3629 4.58183 94.636 4.24096C92.0901 3.93205 91.1846 3.88944 89.6827 4.02792C82.5563 4.66705 78.3061 7.74555 76.8361 13.3486L76.6443 14.0943V13.2954C76.6443 12.6456 76.7082 12.326 76.9852 11.5804C78.5617 7.45794 82.8013 4.57118 88.4683 3.76161C90.5349 3.474 95.5521 3.64444 95.6799 4.01727C95.7225 4.14509 106.78 4.1877 106.78 4.05988C106.78 3.90009 103.765 2.71769 102.625 2.43008C101.613 2.18508 100.708 2.08921 100.708 2.22769C100.708 2.2916 100.761 2.30226 100.814 2.2703C100.878 2.23834 100.921 2.249 100.921 2.31291C100.921 2.37682 101.049 2.494 101.219 2.57922C101.624 2.80291 101.421 2.79226 99.994 2.48335C98.311 2.13182 97.6186 1.90812 97.6186 1.71638C97.6186 1.60986 97.5547 1.5779 97.4588 1.62051C97.3629 1.65247 97.2138 1.64182 97.1073 1.58856C97.0114 1.53529 96.7238 1.39682 96.4894 1.26899C95.9888 1.01334 95.6586 0.98138 95.7225 1.17312C95.7757 1.32225 96.106 1.51399 96.596 1.68443C96.7664 1.74834 96.8729 1.82291 96.841 1.85486C96.7877 1.90812 94.7744 1.49269 94.6466 1.39682C94.6253 1.38617 94.6679 1.30095 94.7318 1.21573C94.817 1.10921 94.9768 1.07725 95.2325 1.11986C95.7331 1.20507 95.7012 0.98138 95.2005 0.842899C94.9768 0.778988 94.6147 0.747028 94.391 0.768333C94.1779 0.789639 93.9649 0.768333 93.9329 0.715073C93.8584 0.587246 93.3577 0.5979 93.3577 0.725727C93.3577 0.789639 93.4642 0.874855 93.6027 0.92812C93.7412 0.98138 93.9116 1.09855 93.9755 1.18377C94.1033 1.3329 94.0075 1.35421 93.2618 1.38617C92.3031 1.41812 92.1114 1.26899 92.7718 1.00268C93.3044 0.778988 93.2299 0.640507 92.6227 0.704422C92.3031 0.725727 92.0794 0.704422 92.0368 0.629856C91.9942 0.565941 91.8025 0.51268 91.6001 0.51268C91.3977 0.51268 91.2059 0.459419 91.174 0.406158C91.0355 0.193115 90.8012 0.299637 90.8012 0.576595C90.8012 0.821594 90.8331 0.842899 91.0675 0.789639C91.2699 0.736378 91.3338 0.768333 91.3338 0.885509C91.3338 0.98138 91.2912 1.03464 91.2272 0.992031C91.174 0.960075 90.8438 0.98138 90.4922 1.03464C89.5229 1.19442 89.0755 1.00268 89.7572 0.715073C90.0129 0.608551 90.1088 0.608551 90.1407 0.704422C90.2046 0.89616 90.3751 0.853554 90.3857 0.640507C90.3857 0.51268 90.4177 0.533985 90.4922 0.715073C90.5455 0.853554 90.6201 0.93877 90.652 0.906815C90.684 0.874855 90.6627 0.747028 90.5881 0.629856C90.5029 0.448769 90.3751 0.406158 89.9703 0.406158C89.6933 0.406158 89.2885 0.352898 89.0542 0.288982C88.7453 0.203766 88.6174 0.203766 88.5642 0.299637C88.5003 0.395508 88.4683 0.395508 88.447 0.310287C88.3831 0.1292 86.9983 0.0759392 86.8598 0.257027C86.7213 0.416809 86.8279 0.491375 87.19 0.47007C87.4031 0.459419 87.4564 0.491375 87.4244 0.629856C87.3924 0.736378 87.2646 0.842899 87.1474 0.874855C86.7746 0.970726 86.1142 0.949421 86.1142 0.832249C86.1142 0.778988 86.1887 0.757683 86.274 0.789639C86.3592 0.832249 86.4337 0.800293 86.4337 0.725727C86.4337 0.651161 86.519 0.629856 86.6468 0.672462C86.764 0.715073 86.8598 0.693768 86.8598 0.629856C86.8598 0.438114 86.2526 0.193115 85.8053 0.193115C85.5709 0.193115 85.3472 0.139851 85.3153 0.0865898C85.2407 -0.0305862 85.0809 -0.0305862 84.4205 0.0972443ZM94.4229 4.78423C94.9236 4.83749 95.6373 4.94401 95.9995 5.00792L96.6812 5.11444L96.6386 7.33011C96.6279 8.55512 96.5747 9.57773 96.5321 9.62034C96.4894 9.66295 96.2977 9.56708 96.106 9.41795C95.4668 8.9386 93.869 8.21424 92.9849 8.01185C92.3244 7.85207 91.7386 7.80946 90.3751 7.82011C88.8411 7.83076 88.4896 7.86272 87.5948 8.09707C84.5163 8.92795 82.7907 10.6003 81.9278 13.5936C81.6083 14.7441 81.6083 16.9065 81.9491 18.1421C82.4285 19.9317 83.2913 21.3378 84.4524 22.2006C86.3592 23.6387 88.5961 24.2352 91.6427 24.1287C92.5588 24.0967 93.6027 24.0115 93.9649 23.9369C94.6466 23.7985 94.7318 23.7132 94.881 23.0422C94.9129 22.925 94.9449 23.1167 94.9555 23.4682L94.9768 24.1074L95.0834 23.4682C95.2218 22.5522 95.1366 17.9078 94.9662 17.503C94.7851 17.0556 94.3697 16.6402 93.6347 16.1608L93.0062 15.7454H95.9462C97.8636 15.7454 98.9075 15.7028 98.9501 15.6389C99.0353 15.4897 93.4216 15.511 93.0488 15.6495C92.889 15.7134 92.7505 15.7134 92.6866 15.6495C92.4096 15.3725 93.2192 15.2873 96.074 15.3086C97.6505 15.3193 98.9714 15.3619 99.0034 15.3832C99.0353 15.4152 99.0353 17.0236 99.014 18.9624C98.9927 21.6893 98.9501 22.5415 98.8329 22.7652C98.6519 23.1061 98.6412 23.2765 98.8116 23.3298C98.9075 23.3617 98.9395 23.8091 98.9501 24.9063V26.4402L97.7251 26.6213C97.054 26.7172 95.8077 26.9089 94.9555 27.0474C92.889 27.367 89.2885 27.3989 87.6587 27.1007C84.495 26.5254 82.3113 25.4815 80.5111 23.6919C79.1157 22.2858 78.1037 20.3791 77.7948 18.5363C77.7202 18.1208 77.635 17.7693 77.603 17.7693C77.5604 17.7693 77.5604 17.535 77.5711 17.2367C77.603 16.8958 77.5711 16.7041 77.4965 16.7041C77.4326 16.7041 77.3793 16.5123 77.3793 16.278C77.3793 16.0436 77.4326 15.8519 77.4859 15.8519C77.5498 15.8519 77.5924 15.7028 77.5924 15.5323C77.5924 15.1595 77.39 15.0956 77.3687 15.4471C77.358 15.5856 77.3154 15.511 77.2728 15.2767C77.1343 14.5523 77.5498 12.6882 78.125 11.4099C78.828 9.85469 80.4259 8.05446 81.9705 7.05315C85.0596 5.05053 89.6294 4.21966 94.4229 4.78423ZM52.2507 5.1464L52.9538 5.22097L52.8685 5.66836C52.8153 5.90271 52.7833 6.86141 52.7727 7.7775V9.44991L52.059 9.08773C51.6542 8.89599 51.0364 8.65099 50.6742 8.55512C49.6835 8.31012 47.8513 8.16098 46.6796 8.2462L45.657 8.31012L45.5931 8.65099C45.5611 8.83208 45.4972 9.85469 45.4652 10.9199C45.412 12.4538 45.3587 12.8693 45.2522 12.8693C45.167 12.8693 45.1031 12.9864 45.1031 13.1356C45.1031 13.4125 45.2628 13.4978 45.3481 13.2634C45.38 13.1995 45.412 13.2634 45.412 13.4232C45.4226 13.6895 45.4652 13.7215 45.8061 13.7215C46.0085 13.7215 46.1576 13.6788 46.115 13.6256C45.9979 13.4232 46.5837 13.3699 48.7461 13.3593L50.9618 13.3486L50.8872 13.9345C50.8553 14.2541 50.7701 14.5523 50.7168 14.5843C50.6103 14.6588 50.6529 14.8186 50.8659 15.1169C50.9618 15.2447 50.9511 15.3725 50.8127 15.6495C50.6848 15.9052 50.6742 16.0223 50.7594 16.0543C50.8446 16.0756 50.834 16.1182 50.7381 16.1821C50.6209 16.2567 50.6103 16.3099 50.7274 16.491C50.8553 16.6934 50.9085 17.0236 50.802 17.0236C50.6635 17.0236 50.1416 16.6402 50.1522 16.5443C50.1629 16.3952 49.4918 16.1821 48.9485 16.1821C48.5863 16.1715 48.5011 16.2034 48.5544 16.3312C48.6077 16.4697 48.4372 16.491 47.4466 16.491C46.605 16.491 46.2748 16.4591 46.2748 16.3632C46.2748 16.2673 46.2429 16.2673 46.147 16.3632C46.0724 16.4378 45.8807 16.491 45.7209 16.491H45.4226L45.4013 17.8439C45.3907 18.6002 45.3907 19.3245 45.4013 19.4524C45.412 19.6334 45.3694 19.6867 45.2628 19.6441C45.0605 19.5695 45.0605 19.7293 45.2628 19.8997C45.4439 20.0489 45.4865 20.6454 45.3161 20.6454C45.2628 20.6454 45.2096 20.72 45.2096 20.8052C45.2096 20.8904 45.2415 20.965 45.2948 20.965C45.4226 20.965 45.38 21.7532 45.2415 21.8704C45.1137 21.9876 45.1776 22.6693 45.3268 22.6693C45.38 22.6693 45.4226 22.8824 45.4226 23.1487C45.4226 23.6706 45.5398 23.7452 45.87 23.4469C46.0511 23.2872 46.1789 23.2872 47.6916 23.4576C51.2494 23.8411 52.3146 23.628 54.7966 22.0408C55.4038 21.6574 55.8192 21.4443 55.8299 21.5295C55.8512 21.5935 55.4783 22.8078 55.0203 24.2139L54.1681 26.7704L52.7514 26.8344C50.1522 26.9622 40.5759 26.9409 39.9687 26.813L39.4041 26.6852L40.1604 25.9822C40.5865 25.5987 41.002 25.1513 41.0978 25.0022C41.247 24.7678 41.4067 23.66 41.492 22.3498C41.5026 22.1367 41.5239 22.158 41.5878 22.4563C41.6304 22.6693 41.6624 22.1367 41.6624 21.178C41.6624 19.953 41.6411 19.7187 41.5878 20.2726C41.5346 20.8158 41.5133 20.4856 41.5026 19.1008C41.492 18.0463 41.4494 16.5549 41.4174 15.7986C41.3535 14.5204 41.3641 14.4352 41.5239 14.6269C41.673 14.8293 41.6837 14.808 41.673 14.2541C41.673 13.7854 41.6517 13.7321 41.5985 13.9878C41.492 14.4138 41.3854 12.7201 41.2896 9.35403C41.2257 7.15968 41.183 6.69098 41.0339 6.40337C40.8315 6.04119 40.2243 5.51923 40.0006 5.51923C39.7876 5.51923 39.99 5.29554 40.3202 5.15705C40.6611 5.00792 50.9831 4.99727 52.2507 5.1464ZM69.6032 5.1464C69.8589 5.19967 69.9015 5.25293 69.8269 5.3914C69.763 5.51923 69.9441 6.0838 70.4554 7.34076C70.8495 8.31012 71.7656 10.6643 72.4793 12.5604C74.6737 18.3339 75.8987 21.1248 77.3261 23.5748C78.157 24.9915 79.2754 26.11 80.0424 26.2804C80.5217 26.387 80.7667 26.5574 80.6389 26.6852C80.5963 26.7385 78.4446 26.7811 75.8667 26.8024C72.181 26.8237 71.1904 26.8024 71.2223 26.6959C71.2543 26.6213 71.6271 26.355 72.0639 26.0993C72.5006 25.8437 72.9587 25.5348 73.0758 25.4176C73.2569 25.2578 73.3208 25.2472 73.3634 25.3537C73.3848 25.4283 73.4487 25.4602 73.4913 25.4176C73.6084 25.3111 73.0652 23.6919 72.1597 21.4443C71.02 18.6002 71.233 18.8878 70.2956 18.8665C69.8589 18.8665 69.4967 18.8984 69.4967 18.9517C69.4967 19.005 68.8256 19.0476 68.0054 19.0476C66.7484 19.0476 66.5141 19.0263 66.5141 18.8878C66.5141 18.8026 66.4395 18.728 66.3543 18.728C66.2691 18.728 66.1945 18.8026 66.1945 18.8878C66.1945 19.0156 65.9388 19.0476 64.7351 19.0689L63.2651 19.1008L63.0308 19.6867C62.903 20.0063 62.7325 20.2726 62.6579 20.2726C62.5834 20.2726 62.5301 20.3684 62.5514 20.4643C62.6047 20.7732 62.1253 22.2752 62.0295 22.1154C61.9549 22.0089 61.9336 22.0089 61.9229 22.1367C61.9123 22.2219 61.9123 22.3604 61.9229 22.435C61.9336 22.5095 61.8697 22.5948 61.7738 22.6267C61.6886 22.6587 61.614 22.8078 61.614 22.9463C61.614 23.0848 61.5714 23.2019 61.5182 23.2019C61.4649 23.2019 61.369 23.3511 61.3051 23.5322C61.156 23.9689 61.156 24.0861 61.3051 23.9902C61.401 23.9369 61.4116 24.0009 61.3584 24.2246C61.0601 25.407 61.156 25.5987 62.2425 26.0248C63.2119 26.3976 63.2864 26.4509 63.116 26.6533C62.9882 26.8024 62.5408 26.8237 59.4942 26.813C57.5875 26.8024 55.7553 26.7704 55.4357 26.7385L54.8499 26.6639L55.734 25.9822C57.2892 24.7785 57.8964 23.7878 59.4942 19.8465C60.0588 18.4404 61.0388 16.0649 61.6566 14.5736C63.2864 10.6749 64.5008 7.45794 64.5327 6.96793C64.5434 6.62706 64.4795 6.46728 64.2025 6.12641C63.6593 5.48727 63.7338 5.22097 64.4901 5.09314C64.9588 5.00792 69.1878 5.05053 69.6032 5.1464ZM31.7878 5.30619C31.7239 5.42336 31.5854 5.56184 31.4682 5.62576C31.351 5.68967 31.0528 6.03054 30.8078 6.40337L30.3497 7.0638L30.2858 8.87468C30.2432 9.86534 30.2112 13.551 30.2006 17.0449L30.1899 23.415H30.7545C31.0528 23.415 31.7665 23.4896 32.3204 23.5748C33.7478 23.7985 35.2071 23.7772 36.1658 23.5322C37.018 23.3191 38.1898 22.7865 39.7556 21.9237C40.2883 21.6254 40.7357 21.4124 40.7357 21.455C40.7357 21.5721 39.3828 25.13 38.9887 26.0567L38.6372 26.877L31.2765 26.9089C27.218 26.9196 23.9051 26.8983 23.9051 26.845C23.9051 26.7385 24.5869 26.0887 25.1088 25.7052C25.929 25.098 25.8758 25.7798 25.9077 15.9371C25.9397 6.21163 25.993 6.89337 25.2686 6.12641C25.0769 5.92402 24.7893 5.72162 24.6295 5.68967C24.2886 5.6151 24.2353 5.3701 24.523 5.21032C24.6295 5.13575 26.0569 5.09314 28.3045 5.09314C31.8517 5.09314 31.9049 5.09314 31.7878 5.30619ZM106.353 5.18901L107.152 5.25293L106.63 5.67902C105.65 6.47793 105.278 6.82946 105.139 7.10641C105.043 7.29815 104.979 8.09707 104.937 9.66295C104.894 11.7188 104.862 11.9532 104.692 12.049C104.511 12.1556 104.511 12.1662 104.702 12.2408C104.883 12.3154 104.894 12.326 104.734 12.326C104.5 12.3367 104.5 12.326 104.702 12.7947C104.894 13.2634 104.905 13.7854 104.734 13.8706C104.628 13.9238 104.628 13.9451 104.734 13.9984C104.83 14.041 104.862 14.4352 104.862 15.4365C104.862 16.5869 104.841 16.8106 104.702 16.8106C104.617 16.8106 104.543 16.9065 104.543 17.0236C104.543 17.1408 104.617 17.2686 104.702 17.3006C104.788 17.3432 104.862 17.4284 104.862 17.503C104.862 17.5776 104.788 17.6947 104.702 17.7693C104.617 17.8439 104.543 17.9397 104.543 17.993C104.543 18.0463 104.617 18.0889 104.702 18.0889C104.819 18.0889 104.862 18.2167 104.862 18.6215C104.862 18.973 104.819 19.1541 104.734 19.1541C104.638 19.1541 104.628 19.186 104.713 19.2393C104.777 19.2819 104.862 19.7187 104.894 20.2193C105.011 21.7852 105.533 22.9782 106.258 23.3404C106.46 23.4363 106.577 23.5215 106.513 23.5215C106.407 23.5322 107.248 23.7985 108.377 24.1074C109.592 24.4483 111.36 24.1926 112.649 23.5109C113.49 23.0635 114.407 22.0728 114.492 21.5295C114.588 20.9437 114.758 18.2167 114.779 16.9704C114.801 16.0862 114.811 16.001 114.875 16.4378C114.918 16.736 114.96 15.7454 114.96 14.2221C114.971 12.7201 114.95 11.4845 114.907 11.4845C114.854 11.4845 114.833 11.8786 114.854 12.358C114.875 12.848 114.843 13.3593 114.779 13.5084C114.705 13.7001 114.673 12.7841 114.673 10.4619L114.662 7.13837L114.172 6.59511C113.895 6.29684 113.458 5.92402 113.182 5.76423C112.915 5.60445 112.67 5.46597 112.649 5.44466C112.628 5.43401 112.67 5.3488 112.745 5.25293C112.862 5.11444 113.299 5.09314 115.674 5.09314C117.208 5.09314 118.827 5.1251 119.275 5.15705L120.084 5.23162L120.02 5.56184C119.978 5.74293 119.818 6.00924 119.669 6.15836C119.509 6.3075 119.264 6.64837 119.125 6.90402L118.87 7.38337L118.838 16.0223L118.817 24.6506L119.062 25.0235C119.189 25.2259 119.562 25.5348 119.882 25.7265C120.201 25.9076 120.659 26.1952 120.894 26.355L121.32 26.6426L121 26.7598C120.521 26.9196 114.449 26.9089 114.449 26.7491C114.449 26.6852 114.502 26.5894 114.556 26.5574C114.62 26.5254 114.662 26.3657 114.662 26.2165C114.662 25.9609 114.641 25.9502 114.247 26.0035C114.023 26.0248 113.448 26.2272 112.979 26.4402C110.604 27.5161 108.111 27.6226 105.682 26.7598C103.392 25.9396 102.124 24.7146 101.379 22.5735C101.017 21.5295 101.027 21.5828 101.059 19.4204C101.059 18.7813 101.049 18.3552 100.963 17.0556C100.931 16.4484 100.953 16.001 101.017 15.8626C101.102 15.7241 101.102 15.6282 101.027 15.5856C100.963 15.543 100.953 15.4684 100.985 15.4045C101.102 15.2128 101.113 13.583 101.006 13.3593C100.836 13.0397 100.697 8.29947 100.836 7.89468C100.953 7.57511 100.931 7.50055 100.644 7.09576C100.239 6.52054 99.4614 6.05184 98.2897 5.67902C97.4162 5.40206 97.3842 5.38075 97.6292 5.24227C97.8316 5.13575 98.7158 5.10379 101.72 5.11444C103.829 5.11444 105.917 5.1464 106.353 5.18901ZM134.901 5.79619C134.72 6.41402 134.72 6.52054 134.848 6.65902C135.019 6.8188 135.04 7.46859 134.912 8.70425L134.848 9.37534L134.582 9.14099C134.433 9.01316 134.379 8.9386 134.454 8.98121C134.518 9.01316 134.582 8.99186 134.582 8.91729C134.582 8.84273 134.497 8.82142 134.358 8.85338C134.22 8.89599 134.081 8.83208 133.964 8.6936C133.708 8.40599 133.261 8.18229 132.899 8.18229C132.739 8.18229 132.547 8.12903 132.473 8.05446C132.387 7.96925 131.706 7.91599 130.427 7.88403C128.617 7.84142 128.51 7.85207 128.499 8.03316C128.489 8.21424 128.478 8.21424 128.436 8.04381C128.372 7.78816 128.009 7.82011 127.711 8.11838C127.37 8.45925 127.274 9.03447 127.477 9.46056C127.573 9.64165 127.605 9.75882 127.551 9.72686C127.317 9.57773 127.274 10.3447 127.498 10.7814C127.615 10.9945 127.658 11.4312 127.658 12.3473C127.658 13.7215 127.669 13.7428 128.265 13.4871C128.457 13.4019 129.373 13.3593 130.939 13.3593L133.314 13.3486L133.261 13.6575C133.229 13.828 133.197 14.6908 133.197 15.5856V17.2047L132.696 16.9597C132.004 16.6189 130.555 16.4591 129.085 16.5443L127.892 16.6189L127.828 17.013C127.743 17.5136 127.743 22.3924 127.828 22.9037C127.892 23.2872 127.903 23.2978 128.393 23.2978C128.659 23.2978 129.245 23.3511 129.682 23.4043C130.747 23.5535 133.538 23.5535 134.316 23.4043C134.976 23.2872 135.722 22.9463 136.446 22.4563C136.925 22.1367 137.724 21.7106 137.863 21.7106C137.937 21.7106 137.575 23.1061 136.755 25.9396L136.467 26.9302H129.256C122.982 26.9302 122.023 26.9089 121.842 26.7704C121.639 26.6107 121.65 26.6 121.906 26.4189C122.044 26.323 122.46 25.9502 122.822 25.588L123.472 24.9489L123.546 21.2739C123.717 11.868 123.727 10.3021 123.631 9.19425C123.578 8.52316 123.567 8.01185 123.621 7.99055C123.898 7.88403 123.535 6.97859 122.95 6.31815C122.769 6.1051 122.417 5.8388 122.183 5.71097C121.629 5.43401 121.639 5.44466 121.799 5.25293C121.916 5.11444 122.747 5.09314 128.521 5.09314H135.104L134.901 5.79619ZM147.684 14.7547C147.684 14.7973 147.514 15.0104 147.301 15.2234C146.96 15.5749 146.875 15.6069 146.491 15.5536C145.98 15.4897 145.873 15.6069 145.873 16.2673V16.736L146.512 16.6721L147.151 16.6189V17.1408V17.6521L146.811 17.5882C145.948 17.4071 145.905 17.4817 145.884 19.005C145.873 20.1661 145.937 20.5602 146.203 20.8371C146.385 21.0502 146.385 21.0502 145.916 21.1248C145.65 21.1567 145.128 21.1567 144.755 21.1248L144.062 21.0502L144.414 20.8158L144.755 20.5815L144.787 19.0795L144.819 17.5669L144.531 17.535L144.243 17.503L144.52 17.1728C144.723 16.9384 144.808 16.7147 144.808 16.4484C144.808 15.6602 145.202 15.0956 145.948 14.8293C146.374 14.6802 147.684 14.6269 147.684 14.7547ZM143.05 16.9065C143.551 17.1408 143.998 17.5882 144.158 18.0143C144.297 18.3871 144.307 19.2606 144.18 19.6121C143.998 20.0702 143.391 20.6667 142.837 20.9224C141.815 21.4017 140.941 21.1993 139.919 20.2406C139.365 19.7293 139.333 19.6761 139.29 19.0795C139.216 18.0782 139.663 17.3752 140.654 16.9278C141.293 16.6402 142.454 16.6295 143.05 16.9065ZM20.6881 24.118C21.0503 24.15 21.3273 24.2246 21.2953 24.2778C21.2527 24.3311 17.9186 24.3737 13.0611 24.3737C5.62588 24.363 4.84827 24.3524 4.35827 24.1819C3.84696 24.0115 4.15588 24.0009 11.9214 24.0222C16.374 24.0435 20.3153 24.0754 20.6881 24.118ZM155.94 24.3843C157.292 24.5228 158.485 24.7359 160.03 25.0874L161.234 25.375L161.17 25.8437C161.138 26.11 161.106 27.2924 161.106 28.4855C161.106 30.3496 161.085 30.6585 160.946 30.6585C160.829 30.6585 160.786 30.7757 160.786 31.042C160.786 31.3402 160.818 31.4148 160.946 31.3616C161.074 31.3189 161.106 31.4148 161.106 31.8622V32.4161L160.701 31.99C160.488 31.7557 160.307 31.4894 160.307 31.4042C160.307 31.3189 160.137 31.2018 159.924 31.1379C159.679 31.0739 159.561 30.9781 159.593 30.8929C159.625 30.797 159.561 30.7544 159.444 30.7757C159.327 30.797 159.029 30.6798 158.762 30.5307C156.472 29.1672 152.744 28.6133 150.145 29.2205C148.643 29.5826 147.503 30.4135 147.024 31.4787C146.896 31.7557 146.789 32.3096 146.757 32.7783C146.704 33.5133 146.725 33.6518 146.981 34.1418C147.13 34.44 147.343 34.717 147.45 34.749C147.556 34.7809 147.812 35.0259 148.036 35.2816C149.037 36.4853 151.018 37.6357 154.565 39.0738C155.727 39.5425 157.314 40.2455 158.091 40.629C159.444 41.3001 159.529 41.364 160.712 42.5677C161.394 43.2494 162.097 44.0058 162.288 44.2401C162.629 44.6768 163.236 45.8379 163.236 46.0723C163.236 46.1469 163.279 46.2108 163.332 46.2108C163.481 46.2108 163.726 46.9138 163.929 47.8938C164.078 48.6501 164.089 48.9271 163.982 49.7047C163.449 53.7312 160.744 56.7139 156.206 58.3011C151.945 59.7817 146.342 59.7391 141.825 58.2052C141.389 58.0561 140.877 57.9282 140.696 57.9282C140.409 57.9282 140.355 57.8856 140.302 57.5874C140.259 57.3956 140.11 56.7778 139.961 56.2239C139.706 55.2758 139.226 51.4836 139.343 51.2919C139.365 51.2493 139.343 51.2173 139.29 51.2173C139.237 51.2173 139.216 51.0788 139.248 50.8978C139.301 50.5356 139.429 50.5675 140.004 51.1001C140.196 51.2812 140.398 51.4304 140.441 51.4304C140.483 51.4304 140.707 51.6008 140.931 51.8032C141.154 52.0056 141.378 52.176 141.431 52.176C141.484 52.176 141.879 52.3891 142.315 52.6447C143.05 53.0921 143.892 53.4543 144.222 53.4543C144.297 53.4543 144.382 53.4969 144.403 53.5502C144.425 53.6034 144.968 53.7845 145.607 53.9656C150.379 55.2971 153.862 54.8604 156.025 52.6447C156.515 52.1441 157.26 50.8551 157.282 50.4823C157.282 50.3545 157.303 50.3651 157.378 50.5249C157.516 50.8445 157.505 50.0136 157.367 49.236C157.197 48.3306 156.781 47.521 156.121 46.8286C155.577 46.2534 154.352 45.3586 154.107 45.3586C154.043 45.3586 153.926 45.2734 153.852 45.1775C153.703 44.9964 152.627 44.4745 149.388 42.9938C148.366 42.5251 147.151 41.9499 146.693 41.7155C146.235 41.4812 145.831 41.3107 145.799 41.3533C145.756 41.3853 145.575 41.2681 145.383 41.087C145.117 40.8314 145 40.7781 144.893 40.8633C144.787 40.9486 144.552 40.842 143.924 40.4266C142.773 39.649 141.921 38.8714 141.325 38.0405C141.048 37.657 140.707 37.2416 140.568 37.1244C140.046 36.6451 139.514 34.2057 139.642 32.8422C139.94 29.7211 141.463 27.5907 144.478 26.078C146.118 25.2578 148.792 24.5335 151.103 24.2778C152.083 24.1713 154.288 24.2139 155.94 24.3843ZM17.2262 25.0874C17.9718 25.1193 18.579 25.1833 18.579 25.2152C18.579 25.2578 18.2381 25.6626 17.8333 26.1313C16.9173 27.1646 16.587 27.7078 16.4592 28.3896C16.3953 28.6665 16.2994 33.6411 16.2355 39.4466C16.1609 45.8379 16.0757 50.003 16.0118 50.0243C15.8414 50.0882 15.9053 50.3758 16.4059 51.8778C16.9599 53.5395 16.7149 53.3478 18.579 53.6141C21.2421 53.9976 24.3525 53.9336 26.2273 53.4436C27.1541 53.1986 29.668 52.0162 30.7758 51.2919C31.5428 50.8125 32.64 50.216 32.6826 50.2799C32.6932 50.3012 31.9902 52.1654 31.106 54.4236L29.5188 58.5354L27.1114 58.5993C25.7906 58.6419 20.6775 58.6419 15.7455 58.5993C6.98937 58.5354 6.76567 58.5248 6.8722 58.333C6.93611 58.2158 7.29829 57.9069 7.68177 57.63C8.82156 56.8204 9.02395 56.618 9.56721 55.638C9.92939 54.9882 10.1105 54.7539 10.1744 54.8604C10.2276 54.9349 10.2703 53.0282 10.2703 50.5782C10.2703 47.9045 10.2276 46.0936 10.1637 45.9977C10.0892 45.8805 10.0572 45.9977 10.0466 46.4238C10.0359 46.7434 9.972 46.1255 9.91874 45.039C9.86547 43.9525 9.82286 40.1709 9.83352 36.6238C9.85482 30.0726 9.7696 27.7824 9.46069 27.0474C9.26895 26.6 8.51264 25.8437 8.05459 25.6626C7.8309 25.5667 7.71372 25.4496 7.73503 25.343C7.76698 25.2046 7.96938 25.162 8.83221 25.1087C10.4407 25.0235 15.6816 25.0022 17.2262 25.0874ZM66.5141 29.6998C67.8456 29.817 69.8482 30.1152 69.9973 30.2218C70.0399 30.2537 70.0719 31.4042 70.0506 32.757L70.008 35.239L69.6778 35.0685C69.486 34.9727 69.1132 34.7277 68.8256 34.5253C68.0906 33.982 66.6632 33.4387 65.353 33.1937C63.2012 32.7996 60.5914 33.0872 58.6953 33.95C56.1281 35.1111 54.4344 37.4333 53.987 40.3733C53.7846 41.7581 53.8485 44.1549 54.1042 44.5384C54.1894 44.6768 54.2427 44.8686 54.2001 44.9645C54.1681 45.0603 54.232 45.2734 54.3492 45.4332C54.4557 45.5929 54.5303 45.7847 54.509 45.8486C54.4877 45.9125 54.5729 46.051 54.6901 46.1575C54.8073 46.264 54.9031 46.4132 54.9031 46.4984C54.9031 46.5729 54.9457 46.6369 54.9883 46.6369C55.0416 46.6369 55.2546 46.8925 55.4783 47.2121C56.5649 48.7993 58.1734 49.8219 60.4636 50.4077C62.3597 50.8978 63.6273 51.0362 65.0334 50.8978C66.3649 50.7593 67.9308 50.4397 67.9841 50.2693C68.048 50.0669 68.2184 50.1414 68.2184 50.3651C68.2184 50.4823 68.2717 50.5782 68.3249 50.5782C68.3888 50.5782 68.4315 49.9497 68.4208 48.8951C68.4102 47.979 68.3782 47.3399 68.3356 47.489C68.1971 47.979 68.0693 46.9245 68.0586 45.1349C68.048 43.4731 68.048 43.4625 67.7497 43.0684C67.3769 42.589 66.7378 42.1097 66.0347 41.7901L65.5021 41.5451L65.8962 41.3747C66.2264 41.2362 66.791 41.2042 69.2623 41.2042C72.4687 41.2042 72.9906 41.2468 72.7882 41.4812C72.703 41.5877 72.6711 43.3453 72.6497 47.4784L72.6391 53.3265L70.2423 53.7099C66.6845 54.2745 66.0027 54.3491 63.9043 54.3384C57.2786 54.3171 52.5383 51.8671 50.4292 47.3506C50.0031 46.4451 49.4705 44.6129 49.4705 44.0697C49.4705 43.8992 49.4279 43.7608 49.3746 43.7608C49.3214 43.7608 49.3 43.6649 49.332 43.5477C49.364 43.4412 49.2787 43.1216 49.1509 42.8447C48.9272 42.3973 48.9166 42.2481 48.9698 41.1616C49.1829 36.9753 51.5157 33.5346 55.4996 31.532C58.4716 30.0407 62.5408 29.3589 66.5141 29.6998ZM46.5944 32.6185V35.1111L45.7209 34.5892C44.2935 33.7263 43.8674 33.6411 41.215 33.6411C39.5106 33.6411 38.9141 33.6731 38.8502 33.769C38.8076 33.8435 38.7543 35.0685 38.733 36.4853L38.7011 39.0738L39.7983 39.0844C40.4054 39.0951 41.737 39.0951 42.7596 39.0738L44.6344 39.0525L44.5918 41.0551C44.5705 42.1629 44.5278 43.0897 44.5065 43.111C44.4852 43.1323 44.1763 43.0257 43.8248 42.866C43.1857 42.5997 43.1218 42.589 40.938 42.589H38.7117V43.0364C38.6904 44.3786 38.4987 46.9458 38.3922 47.2227C38.3069 47.4358 38.3069 47.5529 38.3815 47.5743C38.5413 47.6275 38.5306 47.8832 38.3709 47.9471C38.2643 47.979 38.275 48.043 38.4028 48.1814C38.5306 48.3093 38.5626 48.4477 38.4987 48.714C38.4241 49.0443 38.5626 49.8325 38.7437 50.1201C38.7969 50.1947 38.9035 50.2586 38.9887 50.2586C39.0739 50.2586 39.1165 50.2054 39.0846 50.1521C38.9993 50.003 40.3628 50.0136 42.4613 50.1627C45.2735 50.3758 46.2748 50.1521 48.2348 48.8738C50.0137 47.7127 50.5677 47.4784 50.0031 48.1282C49.8859 48.2666 49.79 48.3838 49.79 48.3945C49.79 48.5117 48.6609 52.1228 48.4053 52.8471L48.0644 53.7739L40.2456 53.7526C34.4934 53.7312 32.4056 53.6886 32.3097 53.5928C32.2245 53.5075 32.4163 53.2519 33.1513 52.5275L34.11 51.5901L34.1845 50.738C34.291 49.5023 34.291 49.1934 34.1632 40.107L34.0354 31.8089L33.7691 31.3935C33.6093 31.1698 33.3217 30.8716 33.1193 30.7331C32.7358 30.4881 32.6506 30.2857 32.885 30.2005C32.9489 30.1685 36.07 30.1365 39.8089 30.1365L46.5944 30.1259V32.6185ZM88.0316 32.5866V35.0472L87.744 34.8129C86.3698 33.7477 85.6987 33.5879 82.6309 33.5879C81.3952 33.5879 80.3407 33.6198 80.298 33.6731C80.1809 33.7903 80.1063 37.2842 80.2022 38.2642L80.2767 39.0738H83.2594C85.8798 39.0738 86.2313 39.0951 86.1781 39.2336C86.1461 39.3188 86.0929 40.2349 86.0503 41.2468C85.9757 43.1003 85.9757 43.1003 85.752 42.9618C85.1235 42.5677 84.4098 42.4825 82.3539 42.5784C81.2568 42.621 80.3407 42.6849 80.3087 42.7062C80.1276 42.8873 80.0317 45.0497 80.085 47.4784C80.1489 50.003 80.1596 50.2054 80.3407 50.1734C80.4365 50.1521 80.5857 50.0775 80.6602 50.0243C80.7454 49.9497 81.1076 49.9604 81.832 50.0562C82.3965 50.1414 83.6109 50.2054 84.5163 50.1947C86.9131 50.1841 88.1594 49.8645 89.6827 48.8738C90.5242 48.3199 91.3338 47.8725 91.387 47.9364C91.419 47.9684 90.194 51.8778 89.7572 53.1347L89.5548 53.7206L81.4804 53.7526L73.4061 53.7739L73.5658 53.5395C73.6511 53.401 74.0771 53.0175 74.4926 52.666C75.4513 51.8884 75.8135 51.2067 75.8348 50.1521C75.8348 49.7686 75.888 48.778 75.9306 47.9471C76.0052 46.7647 75.9945 46.3919 75.888 46.264C75.6004 45.9232 75.43 33.4387 75.7069 32.9913C75.8028 32.8316 75.7815 32.7037 75.6004 32.3416C75.2702 31.6598 74.3435 30.6905 73.96 30.6052C73.3528 30.4668 73.6937 30.2857 74.6737 30.2218C75.1956 30.1898 78.4126 30.1578 81.832 30.1472L88.0316 30.1259V32.5866ZM96.9582 30.1898C97.086 30.2324 97.1925 30.3389 97.1925 30.4348C97.1925 30.5307 98.2577 31.8516 99.5679 33.3642C102.689 36.9966 103.211 37.6357 105.853 41.151C109.549 46.0723 110.636 47.4251 110.731 47.2547C110.87 47.0523 110.849 44.4745 110.721 44.5597C110.668 44.5916 110.614 44.7301 110.614 44.8473C110.614 44.9751 110.582 45.039 110.54 44.9964C110.412 44.8686 110.305 35.6438 110.412 34.1844C110.508 32.8635 110.508 32.8529 110.22 32.3735C109.815 31.6918 109.198 31.042 108.644 30.7544C108.1 30.4668 108.068 30.3922 108.388 30.2324C108.644 30.0939 115.557 30.1365 115.866 30.275C116.026 30.3496 115.908 30.52 115.11 31.3935C114.598 31.9581 114.108 32.512 114.023 32.6185C113.885 32.789 113.853 33.7796 113.81 39.1164C113.767 44.2295 113.725 45.4651 113.608 45.6782C113.501 45.8592 113.49 45.9445 113.586 45.9764C113.746 46.0297 113.735 46.3706 113.576 46.6475C113.469 46.8286 113.469 46.8925 113.576 46.9245C113.757 46.999 113.735 47.276 113.544 47.276C113.341 47.276 113.341 47.5636 113.544 47.6701C113.672 47.7447 113.714 48.224 113.778 50.2586C113.831 51.6328 113.853 53.2306 113.831 53.7952L113.799 54.8284L113.405 54.7645C112.798 54.6686 111.978 54.3384 111.403 53.9549C110.369 53.2732 108.463 51.1854 105.991 48.0216C105.235 47.0523 103.669 45.1455 102.529 43.7714C100.079 40.8527 99.4295 40.0644 98.4175 38.8181C97.7784 38.0192 97.1712 37.4759 96.9475 37.4759C96.9049 37.4759 96.8303 37.5718 96.7558 37.6996C96.6279 37.9446 96.5001 43.2921 96.5108 48.0216C96.5108 50.738 96.5214 50.8764 96.7558 51.3451C96.9049 51.6541 97.1818 51.9949 97.4908 52.2186C99.1419 53.4543 99.046 53.3478 98.8329 53.5715C98.6625 53.7632 98.4708 53.7739 94.9129 53.7739C91.2486 53.7739 90.3751 53.7312 90.3751 53.5502C90.3751 53.4969 90.6733 53.2625 91.0355 53.0069C91.8664 52.453 92.5481 51.8245 92.8144 51.3878C93.0914 50.951 93.2512 49.4384 93.2512 47.3825C93.2512 46.3386 93.2938 45.7953 93.3577 45.8379C93.5388 45.9445 93.4962 43.5903 93.3151 43.3027C93.0701 42.9192 92.8783 37.2309 93.0381 35.1324C93.102 34.227 93.1766 33.3855 93.2086 33.2683C93.2405 33.1405 93.1127 32.7996 92.8783 32.4161C92.4309 31.6811 92.122 31.3189 91.419 30.765L90.9077 30.3602L91.2059 30.2537C91.5149 30.1365 96.5534 30.0833 96.9582 30.1898ZM130.79 30.4348C133.229 30.9781 135.125 31.9794 136.84 33.6198C137.298 34.0566 137.671 34.4827 137.671 34.5572C137.671 34.6424 137.714 34.7064 137.756 34.7064C137.905 34.7064 139.13 37.2735 139.354 38.0618C139.812 39.6383 139.908 40.6183 139.642 41.2362C139.471 41.6623 139.439 43.7608 139.61 43.8779C139.652 43.9099 139.631 44.1442 139.535 44.3892C139.45 44.6449 139.375 44.9645 139.375 45.1136C139.375 45.4758 138.427 47.4358 137.735 48.501C136.595 50.248 134.678 51.9736 133.059 52.7086C131.248 53.5289 129.906 53.7632 126.848 53.8058C123.184 53.8484 116.793 53.7419 116.793 53.6354C116.793 53.5821 117.187 53.1241 117.677 52.6234C118.422 51.8458 118.603 51.5901 118.763 51.0682C118.934 50.5462 118.976 50.4823 119.04 50.6741C119.093 50.7912 119.147 50.8978 119.157 50.8978C119.232 50.8978 119.253 46.4771 119.189 45.4012C119.125 44.3892 119.093 44.2188 118.944 44.2295C118.774 44.2401 118.763 43.8566 118.731 39.7129C118.721 37.2203 118.753 34.5892 118.806 33.8542C118.902 32.544 118.902 32.512 118.646 32.0646C118.337 31.5426 117.496 30.8396 116.952 30.6585C116.75 30.5946 116.58 30.4987 116.58 30.4455C116.58 30.1472 117.133 30.1259 123.344 30.1578C129.511 30.1898 129.767 30.2005 130.79 30.4348Z" fill="white"/>
<path d="M66.5988 10.5045C66.4177 10.8987 65.8318 12.3154 65.2886 13.6682C64.3938 15.8732 64.3086 16.1182 64.5003 16.1502C64.6068 16.1715 64.8305 16.0863 64.9796 15.9691C65.2459 15.7667 65.4057 15.7454 67.1633 15.7454C68.2073 15.7454 69.1873 15.6922 69.3364 15.6389C69.5814 15.543 69.6134 15.5537 69.5601 15.6922C69.5281 15.7774 69.4642 15.9265 69.4323 16.0117C69.379 16.1289 69.4429 16.1715 69.6453 16.1715C69.7945 16.1715 69.9223 16.1182 69.9223 16.0543C69.9223 15.9904 69.4003 14.6056 68.7505 12.9865C67.6534 10.2276 67.5575 10.0358 67.2486 9.91865L66.929 9.79082L66.5988 10.5045Z" fill="white"/>
<path d="M141.601 17.3858C141.58 17.4071 141.42 17.4498 141.239 17.4817C140.824 17.535 140.547 17.6628 140.547 17.7906C140.547 17.8439 140.589 17.8652 140.653 17.8226C140.707 17.7906 140.685 17.8972 140.6 18.0569C140.398 18.4404 140.398 19.2926 140.6 19.6867C140.984 20.4217 142.187 20.5496 142.816 19.9104C143.114 19.6228 143.157 19.5056 143.157 19.0156C143.157 18.2167 142.837 17.6095 142.347 17.4604C141.942 17.3432 141.676 17.3113 141.601 17.3858Z" fill="white"/>
<path d="M124.441 33.8862C124.047 33.9608 123.685 34.0566 123.642 34.1099C123.482 34.2697 123.408 35.8995 123.408 39.7875C123.397 42.2375 123.354 43.7608 123.29 43.7608C123.173 43.7608 123.024 44.4852 123.12 44.581C123.152 44.613 123.227 44.5278 123.28 44.3893C123.344 44.2295 123.386 44.1976 123.386 44.3041C123.397 44.3999 123.322 44.5384 123.237 44.613C123.024 44.7834 123.035 45.1456 123.248 45.1456C123.397 45.1456 123.397 45.1669 123.248 45.38C123.056 45.6569 123.024 45.9978 123.184 45.9978C123.259 45.9978 123.259 46.0617 123.184 46.2002C123.045 46.4665 123.045 47.031 123.184 47.0843C123.259 47.1056 123.322 47.7767 123.354 48.7674C123.386 49.6728 123.429 50.4291 123.429 50.4291C123.44 50.4398 124.302 50.4078 125.336 50.3545C129.17 50.1735 131.322 49.3958 133.016 47.6063C134.145 46.4132 134.699 45.1989 135.104 43.0578C135.296 42.0671 135.413 40.6291 135.253 41.2575C135.178 41.5238 134.624 39.6064 134.486 38.6371C134.209 36.6025 132.441 34.9195 129.714 34.1099C128.894 33.8649 128.553 33.8223 126.965 33.7903C125.804 33.769 124.899 33.801 124.441 33.8862Z" fill="white"/>
</svg>
