<svg width="138" height="80" viewBox="0 0 138 80" fill="none" xmlns="http://www.w3.org/2000/svg">
<g clip-path="url(#clip0)">
<path d="M8.96573 0.275864C8.45999 0.45977 7.58642 0.965515 7.0347 1.51724C6.0232 2.3908 5.97723 2.8046 5.97723 8.78161V15.1264L4.41401 14.8506C2.437 14.5287 0.643896 14.9425 0.551942 15.7241C0.551942 16.046 0.414011 17.3333 0.230103 18.6207C0.0921718 19.908 0.138149 21.1954 0.414011 21.6092C0.689873 21.977 1.93125 22.3908 3.31056 22.5287L5.74734 22.7586V40V57.2414L3.58642 57.4713C2.34505 57.6092 1.10367 58.023 0.827804 58.2988C0.0921718 59.0345 0.0921718 64.1839 0.781827 64.8736C1.10367 65.1954 2.48298 65.5172 3.81631 65.6552L6.34504 65.8391L6.25309 71.5402C6.16114 79.5402 5.74734 79.1724 16.8738 79.5862C28.3221 80.046 41.4715 80.046 49.5634 79.6782C55.3106 79.4483 56.0922 79.3103 55.8623 78.6667C55.6784 78.023 55.6784 78.023 56.2301 78.6667C56.7358 79.3563 58.5289 79.4483 71.0347 79.5862C84.7818 79.7241 117.334 79.8161 124.736 79.6782C131.311 79.5862 131.954 78.7586 131.954 70.2069V65.2874H134.667C136.552 65.2874 137.334 65.1034 137.334 64.6896C137.288 64.4138 137.425 63.1264 137.609 61.931C138.207 58.5747 137.288 57.4713 134.023 57.4713H131.494V40V22.5287H134.253C137.609 22.5287 138.115 21.8851 137.609 18.2988C137.425 16.9655 137.334 15.7241 137.38 15.5402C137.471 15.1264 134.851 14.6667 133.104 14.8046L131.724 14.9425L131.357 10.8046C130.713 3.77011 130.529 2.71265 129.701 1.88506C128.414 0.597702 117.104 -0.229889 105.196 0.183907C94.5749 0.505745 59.9542 0.505745 29.1956 0.229881C18.5749 0.137932 9.47148 0.137932 8.96573 0.275864ZM123.127 8.45977C123.219 8.55172 123.402 22.8506 123.54 40.1839L123.816 71.6782L93.9772 71.8621C77.5634 71.954 63.8163 72.046 63.4485 72.046C63.0807 72.046 51.9542 72 38.7588 72C25.5634 71.954 14.6669 71.8161 14.483 71.6782C13.8393 70.9885 13.5634 66.3448 13.8393 58.8506C14.2531 48.3678 14.2531 25.7931 13.8393 20.2299C13.7014 17.8391 13.6094 14.069 13.7014 11.908L13.8393 8L68.414 8.13793C98.391 8.22988 123.035 8.36781 123.127 8.45977Z" fill="white"/>
<path d="M100.184 15.4483C99.4947 15.5862 98.4832 16.1839 97.8855 16.8276L96.7821 18.023L96.6901 39.6782L96.5981 61.3793L97.6556 62.7586L98.7591 64.138L105.931 64.2759L113.104 64.4138L114.391 63.1265C115.679 61.8851 115.725 61.6552 115.954 56.092C116.046 52.9196 116.046 46.9426 115.908 42.7586L115.633 35.1724L112.414 35.0345C107.495 34.8046 107.265 34.9426 106.851 38.023C106.575 40.3219 106.667 40.7357 107.449 41.3793C108.322 42.069 108.414 42.8046 108.598 49.7931L108.782 57.4713H106.437H104.138L104.23 39.9081L104.322 22.2989L106.621 22.161C109.15 22.023 109.242 22.115 109.518 25.7472C109.656 27.1265 109.84 27.3564 110.989 27.4943C111.725 27.5862 113.012 27.5403 113.794 27.4023L115.265 27.1265L115.633 22.4368C115.954 17.8851 115.908 17.7931 114.759 16.5977C113.61 15.4483 113.38 15.4483 107.495 15.3564C104.138 15.3104 100.828 15.3564 100.184 15.4483Z" fill="white"/>
<path d="M23.0346 25.1495C23.0346 32.5058 22.8966 35.2644 22.3449 37.0115C21.4254 40 21.3794 43.4023 22.2989 44.138C22.8966 44.6437 22.9426 45.8391 22.7127 52.3679C22.253 63.5403 22.6668 64.8276 26.6208 64.8276C30.6208 64.8276 30.5748 64.8736 30.4369 54.3449L30.2989 45.1954L32.0461 44.8736C33.0116 44.7357 35.1725 44.5977 36.8277 44.5977C39.1725 44.5977 40.138 44.3679 40.9656 43.7242C42.0691 42.8506 42.0691 42.7587 42.207 31.7242C42.2989 25.5633 42.253 19.6782 42.0691 18.5747C41.7932 16.7357 41.6553 16.5518 40.0921 16.092C39.1725 15.8621 34.9426 15.6322 30.7127 15.6322H22.9886L23.0346 25.1495ZM34.4829 28.5058C34.4829 32.3219 34.6668 34.8046 35.0346 35.3564C35.4484 36.046 35.4024 36.3679 34.8047 36.9656C34.0691 37.7012 31.8622 37.9311 31.0346 37.3334C30.7587 37.1495 30.5288 33.9311 30.4369 29.7472L30.2989 22.5288H32.4139H34.4829V28.5058Z" fill="white"/>
<path d="M47.6785 15.9541C47.1267 16.4598 47.3106 21.8391 47.9083 22.4368C48.2762 22.8047 48.2762 23.1265 47.9543 23.5403C47.6325 23.9541 47.4486 30.5748 47.4026 43.0345C47.3106 61.8391 47.3106 61.8851 48.3221 63.1725L49.3336 64.4598L57.1957 64.2759C61.5176 64.138 65.3796 63.9081 65.8394 63.7242C67.6785 62.8966 67.8164 61.4254 67.8164 38.7587C67.8164 26.8506 67.6325 16.9196 67.4486 16.7357C67.2647 16.5058 65.7474 16.2759 64.1382 16.184C61.2417 16.0001 61.1497 16.0001 60.69 17.2414C60.3681 18.069 60.2302 25.2414 60.3222 37.5173C60.3681 52.5978 60.2762 56.6437 59.7704 57.1955C59.3566 57.7472 59.0348 57.7932 58.621 57.4713C58.2992 57.1955 57.3336 57.0575 56.5061 57.1035L54.9428 57.2414V37.1035C54.9428 17.6552 54.8969 16.9196 54.0693 16.2759C53.1497 15.6322 48.2302 15.3564 47.6785 15.9541Z" fill="white"/>
<path d="M73.3337 16.092C73.1958 16.3219 73.1038 20.5518 73.1498 25.4253C73.1958 32.8276 73.1038 34.5748 72.4602 35.7702C71.5406 37.5633 71.5406 39.5403 72.4142 41.6552C72.9199 42.8966 73.1038 45.7012 73.1498 53.8391L73.1958 64.4598L81.2418 64.2759L89.2878 64.138L90.3452 62.8966C91.7245 61.2874 92.0924 58.069 91.8625 48.5058C91.7245 41.6552 91.6326 41.0575 90.6211 39.6322C89.6096 38.161 89.6096 38.069 90.3912 37.1955C91.0809 36.4139 91.2188 35.0805 91.4027 26.7127L91.6326 17.1495L90.5291 16.3679C89.6096 15.7702 88.1383 15.6322 81.5176 15.6322C76.782 15.6322 73.5176 15.8162 73.3337 16.092ZM84.1383 28.4598C84.1383 32.3679 83.9544 34.9886 83.6786 35.1725C83.4027 35.3564 82.6211 35.3564 81.8855 35.1725C80.6441 34.8966 80.5521 34.7127 80.3682 32.2759C80.2303 30.8506 80.2303 27.9541 80.3682 25.8391L80.5981 22.069H82.3452H84.1383V28.4598ZM84.0464 50.207L84.1383 57.9311H82.805C80.1843 57.9311 80.2303 58.0231 80.3682 50.4368C80.4602 46.6208 80.5981 43.1725 80.6901 42.8506C80.828 42.4828 81.4717 42.2989 82.3912 42.3909L83.9084 42.5288L84.0464 50.207Z" fill="white"/>
</g>
<defs>
<clipPath id="clip0">
<rect width="137.931" height="80" fill="white"/>
</clipPath>
</defs>
</svg>
