<svg width="276" height="54" viewBox="0 0 276 54" fill="none" xmlns="http://www.w3.org/2000/svg">
<path d="M253.429 17.8014H260.903V40.6934C260.903 41.007 261.164 41.216 261.425 41.216H265.711C266.025 41.216 266.234 40.9547 266.234 40.6934V17.8014H275.641C275.903 17.8014 276.059 17.4878 275.903 17.2787L272.662 13.2544C272.401 12.9408 271.983 12.7317 271.565 12.7317H253.376C253.063 12.7317 252.854 12.993 252.854 13.2544V17.2787C252.906 17.5401 253.115 17.8014 253.429 17.8014ZM72.7491 40.7456L94.7004 13.2544C94.8572 13.0453 94.7004 12.7317 94.4391 12.7317H89.0035C88.5854 12.7317 88.1673 12.9408 87.9059 13.2544L72.331 32.7491V13.2544C72.331 12.9408 72.0697 12.7317 71.8084 12.7317H67.5226C67.2091 12.7317 67 12.993 67 13.2544V40.7456C67 41.0592 67.2613 41.2683 67.5226 41.2683H71.7038C72.0697 41.2683 72.4878 41.0592 72.7491 40.7456ZM88.2718 40.7456L95.7979 31.2857L103.376 40.7456C103.638 41.0592 104.056 41.2683 104.474 41.2683H108.655C108.969 41.2683 109.178 41.007 109.178 40.7456V13.2544C109.178 12.9408 108.916 12.7317 108.655 12.7317H105.153C104.317 12.7317 103.481 13.0976 102.958 13.777L81.4251 40.7456C81.2683 40.9547 81.4251 41.2683 81.6864 41.2683H87.122C87.5924 41.2683 87.9582 41.0592 88.2718 40.7456ZM103.847 20.676V33.3241L98.777 27L103.847 20.676ZM226.408 40.7456L204.457 13.2544C204.195 12.9408 203.777 12.7317 203.359 12.7317H199.178C198.864 12.7317 198.655 12.993 198.655 13.2544V40.7456C198.655 41.0592 198.917 41.2683 199.178 41.2683H203.359C203.777 41.2683 204.195 41.0592 204.457 40.7456L212.035 31.2857L219.561 40.7456C219.822 41.0592 220.241 41.2683 220.659 41.2683H226.147C226.46 41.2683 226.617 40.9547 226.408 40.7456ZM209.056 27L203.986 33.3241V20.676L209.056 27ZM148.638 12C140.38 12 133.638 18.6899 133.638 27C133.638 35.2578 140.328 42 148.638 42C156.896 42 163.638 35.3101 163.638 27C163.638 18.6899 156.896 12 148.638 12ZM148.638 36.8781C143.307 36.8781 139.021 32.4355 139.021 27C139.021 21.5122 143.307 17.122 148.638 17.122C153.969 17.122 158.254 21.5645 158.254 27C158.254 32.4355 153.969 36.8781 148.638 36.8781ZM243.812 13.2544V32.7491L228.237 13.2544C227.976 12.9408 227.558 12.7317 227.14 12.7317H222.958C222.645 12.7317 222.436 12.993 222.436 13.2544V26.4774C222.436 26.7909 222.54 27.1045 222.749 27.3659L227.192 32.9582C227.401 33.2195 227.767 33.0627 227.767 32.7491V21.2509L243.342 40.7456C243.603 41.0592 244.021 41.2683 244.439 41.2683H248.62C248.934 41.2683 249.143 41.007 249.143 40.7456V13.2544C249.143 12.9408 248.882 12.7317 248.62 12.7317H244.335C244.073 12.7317 243.812 12.9408 243.812 13.2544ZM191.443 19.2126V13.2544C191.443 12.9408 191.181 12.7317 190.92 12.7317H168.969C168.655 12.7317 168.446 12.993 168.446 13.2544V40.7456C168.446 41.0592 168.707 41.2683 168.969 41.2683H173.254C173.568 41.2683 173.777 41.007 173.777 40.7456V17.8537H186.059L177.749 28.2544C177.592 28.4634 177.592 28.7247 177.749 28.9338L187.209 40.7979C187.471 41.1115 187.889 41.3206 188.307 41.3206H193.795C194.056 41.3206 194.213 41.007 194.056 40.7979L184.387 28.5157L191.129 20.0488C191.338 19.8397 191.443 19.5261 191.443 19.2126ZM116.181 41.2683H128.882C129.3 41.2683 129.718 41.0592 129.979 40.7456L133.167 36.7213C133.324 36.5122 133.167 36.1986 132.906 36.1986H120.99V13.3066C120.99 12.993 120.728 12.784 120.467 12.784H116.181C115.868 12.784 115.659 13.0453 115.659 13.3066V40.7979C115.659 41.007 115.868 41.2683 116.181 41.2683Z" fill="white"/>
<g clip-path="url(#clip0)">
<path d="M54.3963 25.922V4.79554C54.3963 4.46969 53.9889 4.33391 53.7717 4.5783L30.6901 33.4167C30.5001 33.6339 30.663 33.9869 30.9617 33.9869H47.6347C48.0964 33.9869 48.5037 33.7697 48.7752 33.4167L54.0433 26.8452C54.2605 26.6008 54.3963 26.275 54.3963 25.922ZM0.412581 26.8724L17.7373 48.5419C18.0089 48.8949 18.4433 49.085 18.905 49.085H35.578C35.8767 49.085 36.0396 48.7591 35.8496 48.5419L0.684129 4.60546C0.466891 4.36107 0.0595703 4.49684 0.0595703 4.8227V25.9491C0.0867251 26.275 0.195343 26.6008 0.412581 26.8724Z" fill="white"/>
</g>
<defs>
<clipPath id="clip0">
<rect width="54" height="54" fill="white"/>
</clipPath>
</defs>
</svg>
