<svg width="20" height="20" viewBox="0 0 20 20" fill="none" xmlns="http://www.w3.org/2000/svg">
<path d="M19.529 7.723L17.992 7.389C17.8588 6.98062 17.6943 6.58311 17.5 6.2L18.351 4.876C18.4244 4.76108 18.4565 4.62456 18.442 4.48895C18.4274 4.35335 18.3671 4.22674 18.271 4.13L15.874 1.731C15.7773 1.63487 15.6507 1.57456 15.515 1.56001C15.3794 1.54547 15.2429 1.57756 15.128 1.651L13.8 2.5C13.4157 2.3045 13.0168 2.13901 12.607 2.005L12.277 0.47C12.2475 0.336993 12.1736 0.217992 12.0674 0.132571C11.9613 0.0471507 11.8292 0.000396912 11.693 0L8.307 0C8.17076 0.000396912 8.03871 0.0471507 7.93257 0.132571C7.82643 0.217992 7.75252 0.336993 7.723 0.47L7.389 2.008C6.98062 2.14123 6.58311 2.30572 6.2 2.5L4.872 1.651C4.75708 1.57756 4.62056 1.54547 4.48495 1.56001C4.34935 1.57456 4.22274 1.63487 4.126 1.731L1.731 4.126C1.63487 4.22274 1.57456 4.34935 1.56001 4.48495C1.54547 4.62056 1.57756 4.75708 1.651 4.872L2.5 6.2C2.3045 6.58432 2.13901 6.98317 2.005 7.393L0.47 7.723C0.336993 7.75252 0.217992 7.82643 0.132571 7.93257C0.0471507 8.03871 0.000396912 8.17076 0 8.307L0 11.694C0.00044759 11.8304 0.0473442 11.9625 0.132962 12.0687C0.218579 12.1749 0.337808 12.2487 0.471 12.278L2.008 12.612C2.14128 13.02 2.30577 13.4172 2.5 13.8L1.649 15.124C1.57556 15.2389 1.54347 15.3754 1.55801 15.511C1.57256 15.6467 1.63287 15.7733 1.729 15.87L4.124 18.265C4.22074 18.3611 4.34735 18.4214 4.48295 18.436C4.61856 18.4505 4.75507 18.4184 4.87 18.345L6.2 17.5C6.58432 17.6955 6.98317 17.861 7.393 17.995L7.727 19.532C7.75676 19.664 7.83024 19.782 7.93553 19.867C8.04081 19.9519 8.17172 19.9988 8.307 20H11.694C11.8304 19.9996 11.9625 19.9527 12.0687 19.867C12.1749 19.7814 12.2487 19.6622 12.278 19.529L12.612 17.992C13.02 17.8587 13.4172 17.6942 13.8 17.5L15.124 18.351C15.2389 18.4244 15.3754 18.4565 15.511 18.442C15.6467 18.4274 15.7733 18.3671 15.87 18.271L18.265 15.876C18.3611 15.7793 18.4214 15.6527 18.436 15.517C18.4505 15.3814 18.4184 15.2449 18.345 15.13L17.5 13.8C17.6955 13.4157 17.861 13.0168 17.995 12.607L19.532 12.273C19.664 12.2432 19.782 12.1698 19.867 12.0645C19.9519 11.9592 19.9988 11.8283 20 11.693V8.307C19.9996 8.17062 19.9527 8.03846 19.867 7.9323C19.7814 7.82614 19.6622 7.75232 19.529 7.723ZM13.586 10C13.586 10.7092 13.3757 11.4026 12.9817 11.9923C12.5876 12.582 12.0276 13.0416 11.3723 13.313C10.717 13.5844 9.99602 13.6555 9.30041 13.5171C8.60479 13.3787 7.96583 13.0372 7.46431 12.5357C6.9628 12.0342 6.62127 11.3952 6.4829 10.6996C6.34454 10.004 6.41555 9.28295 6.68697 8.6277C6.95838 7.97244 7.41801 7.41238 8.00772 7.01835C8.59744 6.62432 9.29076 6.414 10 6.414C10.9507 6.41506 11.8622 6.79321 12.5345 7.46548C13.2068 8.13776 13.5849 9.04926 13.586 10Z" fill="#5F6168"/>
</svg>
