<svg width="35" height="35" viewBox="0 0 35 35" fill="none" xmlns="http://www.w3.org/2000/svg">
<path d="M33.75 8.75H27.5V1.25C27.5 0.918479 27.3683 0.600537 27.1339 0.366117C26.8995 0.131696 26.5815 0 26.25 0L1.25 0C0.918479 0 0.600537 0.131696 0.366117 0.366117C0.131696 0.600537 0 0.918479 0 1.25L0 30C0 31.3261 0.526784 32.5979 1.46447 33.5355C2.40215 34.4732 3.67392 35 5 35H30C31.3261 35 32.5979 34.4732 33.5355 33.5355C34.4732 32.5979 35 31.3261 35 30V10C35 9.66848 34.8683 9.35054 34.6339 9.11612C34.3995 8.8817 34.0815 8.75 33.75 8.75ZM10 6.25H17.5C17.8315 6.25 18.1495 6.3817 18.3839 6.61612C18.6183 6.85054 18.75 7.16848 18.75 7.5C18.75 7.83152 18.6183 8.14946 18.3839 8.38388C18.1495 8.6183 17.8315 8.75 17.5 8.75H10C9.66848 8.75 9.35054 8.6183 9.11612 8.38388C8.8817 8.14946 8.75 7.83152 8.75 7.5C8.75 7.16848 8.8817 6.85054 9.11612 6.61612C9.35054 6.3817 9.66848 6.25 10 6.25ZM21.25 30H6.25C5.91848 30 5.60054 29.8683 5.36612 29.6339C5.1317 29.3995 5 29.0815 5 28.75C5 28.4185 5.1317 28.1005 5.36612 27.8661C5.60054 27.6317 5.91848 27.5 6.25 27.5H21.25C21.5815 27.5 21.8995 27.6317 22.1339 27.8661C22.3683 28.1005 22.5 28.4185 22.5 28.75C22.5 29.0815 22.3683 29.3995 22.1339 29.6339C21.8995 29.8683 21.5815 30 21.25 30ZM21.25 25H6.25C5.91848 25 5.60054 24.8683 5.36612 24.6339C5.1317 24.3995 5 24.0815 5 23.75C5 23.4185 5.1317 23.1005 5.36612 22.8661C5.60054 22.6317 5.91848 22.5 6.25 22.5H21.25C21.5815 22.5 21.8995 22.6317 22.1339 22.8661C22.3683 23.1005 22.5 23.4185 22.5 23.75C22.5 24.0815 22.3683 24.3995 22.1339 24.6339C21.8995 24.8683 21.5815 25 21.25 25ZM21.25 20H6.25C5.91848 20 5.60054 19.8683 5.36612 19.6339C5.1317 19.3995 5 19.0815 5 18.75C5 18.4185 5.1317 18.1005 5.36612 17.8661C5.60054 17.6317 5.91848 17.5 6.25 17.5H21.25C21.5815 17.5 21.8995 17.6317 22.1339 17.8661C22.3683 18.1005 22.5 18.4185 22.5 18.75C22.5 19.0815 22.3683 19.3995 22.1339 19.6339C21.8995 19.8683 21.5815 20 21.25 20ZM21.25 15H6.25C5.91848 15 5.60054 14.8683 5.36612 14.6339C5.1317 14.3995 5 14.0815 5 13.75C5 13.4185 5.1317 13.1005 5.36612 12.8661C5.60054 12.6317 5.91848 12.5 6.25 12.5H21.25C21.5815 12.5 21.8995 12.6317 22.1339 12.8661C22.3683 13.1005 22.5 13.4185 22.5 13.75C22.5 14.0815 22.3683 14.3995 22.1339 14.6339C21.8995 14.8683 21.5815 15 21.25 15ZM32.5 30C32.5 30.663 32.2366 31.2989 31.7678 31.7678C31.2989 32.2366 30.663 32.5 30 32.5C29.337 32.5 28.7011 32.2366 28.2322 31.7678C27.7634 31.2989 27.5 30.663 27.5 30V11.25H32.5V30Z" fill="#31343C"/>
</svg>
