<svg width="9" height="15" viewBox="0 0 9 15" fill="none" xmlns="http://www.w3.org/2000/svg">
<path opacity="0.737115" d="M2.256 9.288H0C0.106667 10.5467 0.496 11.5013 1.168 12.152C1.84 12.8027 2.77333 13.1707 3.968 13.256V14.616H4.912V13.256C5.712 13.2027 6.368 13.0427 6.88 12.776C7.392 12.5093 7.79733 12.2053 8.096 11.864C8.40533 11.5227 8.61867 11.176 8.736 10.824C8.85333 10.4613 8.912 10.1627 8.912 9.928C8.912 9.66133 8.89067 9.35733 8.848 9.016C8.816 8.67467 8.69867 8.33333 8.496 7.992C8.29333 7.65067 7.97867 7.32533 7.552 7.016C7.12533 6.696 6.51733 6.42933 5.728 6.216C5.57867 6.17333 5.43467 6.136 5.296 6.104C5.168 6.072 5.04 6.04 4.912 6.008V3.176C5.27467 3.176 5.584 3.32533 5.84 3.624C6.096 3.92267 6.22933 4.28533 6.24 4.712H8.512C8.48 4.15733 8.36267 3.67733 8.16 3.272C7.95733 2.86667 7.696 2.53067 7.376 2.264C7.056 1.98667 6.68267 1.77333 6.256 1.624C5.84 1.464 5.392 1.35733 4.912 1.304V0.0719995H3.968V1.304C3.488 1.336 3.024 1.432 2.576 1.592C2.128 1.74133 1.73333 1.96 1.392 2.248C1.05067 2.52533 0.773333 2.872 0.56 3.288C0.357333 3.704 0.256 4.184 0.256 4.728C0.256 5.26133 0.346667 5.70933 0.528 6.072C0.709333 6.424 0.949333 6.72267 1.248 6.968C1.55733 7.20267 1.904 7.39467 2.288 7.544C2.672 7.68267 3.06133 7.80533 3.456 7.912C3.56267 7.93333 3.65867 7.96 3.744 7.992C3.84 8.01333 3.91467 8.03467 3.968 8.056V11.4C3.47733 11.304 3.06667 11.08 2.736 10.728C2.40533 10.376 2.24533 9.896 2.256 9.288ZM4.912 11.4V8.328C5.54133 8.49867 5.984 8.69067 6.24 8.904C6.50667 9.10667 6.64 9.416 6.64 9.832C6.64 10.088 6.58667 10.312 6.48 10.504C6.37333 10.6853 6.23467 10.84 6.064 10.968C5.904 11.096 5.71733 11.1973 5.504 11.272C5.30133 11.336 5.104 11.3787 4.912 11.4ZM3.968 3.176V5.784C3.456 5.66667 3.088 5.512 2.864 5.32C2.64 5.128 2.528 4.856 2.528 4.504C2.528 4.28 2.56533 4.088 2.64 3.928C2.72533 3.75733 2.83733 3.61867 2.976 3.512C3.11467 3.39467 3.26933 3.30933 3.44 3.256C3.61067 3.20267 3.78667 3.176 3.968 3.176Z" fill="#96918D"/>
</svg>
